<?xml version="1.0" encoding="UTF-8" standalone="no"?><svg xmlns="http://www.w3.org/2000/svg" xmlns:xlink="http://www.w3.org/1999/xlink" data-name="Layer 1" fill="#0b638b" height="164.4" preserveAspectRatio="xMidYMid meet" version="1" viewBox="3.6 175.0 492.9 164.4" width="492.9" zoomAndPan="magnify"><g id="change1_1"><path d="M73.77,209.68c2.64-2,5.84-2,8.86-2.33a65.36,65.36,0,0,0,10.31-1.87,35.53,35.53,0,0,1,4-.83c2.79-.42,4.37-2,4.56-4.79.06-1,.34-1.44,1.27-1.67,1.83-.45,3.64-1,5.47-1.45a1.46,1.46,0,0,1,1.49.25,3.08,3.08,0,0,1-.34.62c-.26.28-.76.49-.82.79-.09.48.43.59.81.59a121.14,121.14,0,0,0,13.34-.12c4.16-.37,8.31-.82,12.48-1a34.2,34.2,0,0,1,5.21.47l0-.06a3.71,3.71,0,0,1-2.25.85c-2.71,0-5.33,1-8.07.69a4.37,4.37,0,0,0-1.59.22c-2.45.64-4.9,1.3-7.34,2.1a55.29,55.29,0,0,0,10.45-.12c5-.7,10-.22,15-.48,5.2,1.37,10.5.87,15.75.73,5.67-.16,11.34-.67,17-1.1a84.71,84.71,0,0,1,18.63.21,10.83,10.83,0,0,0,2.83.19c5.53-.72,11.06.28,16.59.05a81.53,81.53,0,0,0,10.12-.57,32.13,32.13,0,0,1,4.05-.21c5.53-.22,11.09.33,16.6-.59a1.18,1.18,0,0,1,1.29.73c.11.19.57.42.63.36,1.89-1.58,4.6.36,6.43-1.51a2.36,2.36,0,0,1,1.91-.48,90,90,0,0,0,16.15-1.17,27.07,27.07,0,0,0,7.09-1.64,16.74,16.74,0,0,1,4.38-.79c1.33-.2,2.73-.38,3.51-1.71.57-.95,1.18-.91,2-.27a1.56,1.56,0,0,0,1.91.05c1.4-1,3-1,4.62-1.38.92-.21,2.34-.06,2.15-1.79,0-.2.55-.61.89-.67,1.74-.31,3.51-1.7,5.23.18.25.28,1,.14,1.57.11a54.77,54.77,0,0,0,8.08-.55c1.85-.38,3.76.13,5.66-.18,2.11-.33,4.33,0,6.36-1,.33-.16.81,0,1.19-.12,1.12-.31,1.5,1.86,2.78.81.92-.76,1.79-.32,2.66.06a4,4,0,0,0,2.77-.1,40.4,40.4,0,0,1,10.84-1.33,68.67,68.67,0,0,0,9.71-.65,80.09,80.09,0,0,1,8.9-.56c1.63-.05,3.24.11,4.76-.67a2.28,2.28,0,0,1,1.2-.11c6.73.68,13.51,0,20.25.94,3.6.49,7.3.22,10.95.3.95,0,1.9,0,2.84.11a2.1,2.1,0,0,1,2.18,1.49c.44,1.7,2.06,2,3.22,2.89.72.53,1.53.14,2.33,0,3.05-.76,6.17-.49,9.27-.57a2.93,2.93,0,0,1,1.14.37c.11,0,.25.24.22.31-.09.24-.21.61-.39.65-1.18.26-2.39.39-3.55.69-.63.16-.67.76-.47,1.33l0,0a1.91,1.91,0,0,0,1.94,1.12,30.67,30.67,0,0,1,7.53,1.44c1.21.34,2.18.91,2.21,2.48,0,.66.84.59,1.28.22.71-.6,1.19-1.5,2.22-1.66.39-.06,1-.18,1.16,0,.61.61-.21.84-.47,1.2-.41.58-.29,1.13.31,1.3a8.38,8.38,0,0,0,6.23-.59c.2-.1.28-.45.41-.68l0,0a16.46,16.46,0,0,0,6.4.72,40.69,40.69,0,0,1,4.9.19c.23-.36.53.76.12.42s.14,0-.33.22l-.78.45c1.14.47,2.23.87,3.27,1.38a1.23,1.23,0,0,1,.27,1.78c-.86,1-2.26,1.51-2.89,2.76,0,.75.55.91,1.07.92,2.62.06,4.74,2,7.4,1.9,1,2.1,3.11,1.71,4.78,2.11a16.5,16.5,0,0,0,5.66.3,1.22,1.22,0,0,1,1.39.51c-.11.22-.16.52-.33.66-2,1.56-2,1.54-1.38,3.52a2,2,0,0,0,2,1.58c.53,0,1.06.11,1.79.19-.72.29.21.06-.16.45a.6.6,0,0,1-.35.2c-1.22,0-2.44.07-3.65.08-1.74,0-3.47,0-5.24,0-.12.72.55.69,1,.71,1.76.06,3.52,0,5.28.07,1.61,0,3.22.07,4.61,1.16-7.51-.49-15-.58-23.43-.34a10.19,10.19,0,0,0,5.57,1.61c2.3.05,4.59.23,6.89.41,1.9.15,3.74.39,5.08,2.08.73.92,1.92.85,3,.65s2.1-.69,3.17-.13c.58.32,1.23.73,1.05,1.52-.14.62-.78.73-1.32.7-4.32-.23-8.64-.48-13-.72a2.4,2.4,0,0,0-.8,0c-.2.07-.49.31-.48.46a.73.73,0,0,0,.44.55c2.09.55,4.18,1.14,6.38.46a7.07,7.07,0,0,1,4.41.08,14,14,0,0,0,8,.51,5,5,0,0,1,1.22,0c.34,0,.6.2.48.45s-.44.25-.68.35c-.48.21-.68.5-.06.71a11.71,11.71,0,0,0,1.59.25.43.43,0,0,1,.31.63.5.5,0,0,1-.27.28,4.18,4.18,0,0,1-.78.17c-.54.05-1.15.06-1.2.76s.47.93.91,1.25a5.69,5.69,0,0,0,3.51.78,21,21,0,0,1,7.06,1.1,3.21,3.21,0,0,1-2.21.41c-3.37.14-6.76.12-10.12.41-1.8.16-3.5-.43-5.25-.27-1.21.11-2.49.05-2.88,1.65a.88.88,0,0,1-1.33.5,4.23,4.23,0,0,0-4.16,0c-1.17.5-2.66.27-4,.27a35.71,35.71,0,0,0-6.36.34c3.16.52,6.44.19,10.13,2-5.05-.14-9.35.55-13.67-.2a15.83,15.83,0,0,0-3.23,0c-1.37.05-2.89-1.1-4.08.48,1.25,1.11,2.81.67,4.17.62,6.25-.23,12.4.92,18.62,1.1,4.45.13,8.9.44,13.35.5a30.88,30.88,0,0,1,9.2,1.27c-3,.27-5.92,1.77-9.09.11-1.82-1-4-.65-6-.27-1.31.26-2.43.77-3.78.07-.66-.34-2.45,1.19-2.63,2.09a.87.87,0,0,0,.21.72c.94.75,2,2,3.17,1.41,2-.91,3.67.05,5.45.5.4.1.81.41.62.83s-.61.45-.91.68a8,8,0,0,0-.69.68l7,.33c-.6.88-1.5.49-2.24.5-7.31.09-14.62.12-21.93.18-.81,0-1.63,0-2.43.09a2.18,2.18,0,0,0-1.09.47c-1.65,1.34-2.23,1.39-4.29,1.17-2.41-.27-4.93-.65-7.21.4a7.26,7.26,0,0,1-5.5.31c-1.16-.37-2.36-.76-3.54-.13a1.53,1.53,0,0,0-.73.86,1,1,0,0,0,.85,1.17,6.33,6.33,0,0,0,2,.05,52.44,52.44,0,0,1,15,.14,85.19,85.19,0,0,0,10.95.34c1.42,0,2.83.07,4.48.11a2.93,2.93,0,0,1-2.44,1.08c-2.69.06-5.38,0-8.07,0-.4,0-.81-.16-1.21-.12-1.34.13-2.68.36-4,.45-1.18.08-2.36,0-3.81,0,1.22,1.37,2.75.55,3.93,1.1-.07,1-1.27.14-1.39.94.14.08.34.3.54.31,5.39.23,10.79.42,16.18.68a36.44,36.44,0,0,1,4,.55.82.82,0,0,1,.51.52.73.73,0,0,1-.34.61,15.66,15.66,0,0,1-6.76.95c-3.1-.12-6.21.07-9.31.16a.91.91,0,0,0-.61.45c-.24.42,0,.74.38,1s1.25.42,1.33.76c.59,2.47,2.69,2.51,4.47,2.64,5,.37,10,.54,15,.73,2,.07,4.07.15,5.9-1.05a1.53,1.53,0,0,1,1.9.07c1.23,1.16,2.73,1,4.21,1.07a12.5,12.5,0,0,1,4.45.56,21.17,21.17,0,0,1-2.5.18c-5.3-.23-10.53.68-15.8.86a4.23,4.23,0,0,0-1.59.28,5,5,0,0,1-3.93.05c-.62-.22-1.44-.38-1.77.43-.61,1.53-1.92,1.48-3.07,1.25a10.17,10.17,0,0,0-5.52.23,10.22,10.22,0,0,1-4,.1c-3.15-.3-5.38,1.06-7.22,3.71,1.94.78,4.15-.85,5.93,1.11-1.24.05-2.3.14-3.35.12a44.9,44.9,0,0,0-9.69.92,16.9,16.9,0,0,1-8,0,5.13,5.13,0,0,0-2,0c-.15,0-.37.4-.37.62a.82.82,0,0,0,.39.61,3.56,3.56,0,0,0,1.17.26c6.05.55,12.09,1.19,18.15,1.6,3.24.22,6.5.05,9.75.08a10.92,10.92,0,0,1,4.3.71h-7.23c-2.57,0-5.14,0-7.71.11a10.68,10.68,0,0,0-3.57.63,15,15,0,0,1-8.39.59c-1.61-.26-3.16-.77-4.76-.06a1.22,1.22,0,0,1-.8.05c-4-1.16-7.75.83-11.65.83a.76.76,0,0,0-.57.48c0,.53.44.6.82.6,3.52.05,7,.08,10.56.11,1.35,0,2.71,0,4.06,0a1.37,1.37,0,0,1,1.5.79,12.83,12.83,0,0,1-4.62,1c-2.05.23-4.08.26-5.17,2.5-.18.37-.89.53-1.39.68a2.17,2.17,0,0,0-1.55,1.18c-.86,2-2.6,2.51-4.54,2.92a25.52,25.52,0,0,1-6,.67,25,25,0,0,0-5.66.35,4.47,4.47,0,0,1-2,.12c-3.82-1.16-7.52.39-11.27.43a1.57,1.57,0,0,0-1.62.95c.35.62.93.48,1.44.58.84.14,2.21-.6,2.36.71.09.84-1.35.56-2,1a.78.78,0,0,0-.29.63.83.83,0,0,0,.52.54,20.56,20.56,0,0,0,2.82.28c3.38,0,6.77,0,10.15,0a30.51,30.51,0,0,1,6.47.4,9.72,9.72,0,0,0,2.41,0c.4,0,.8-.11,1.2-.16,1.18-.13,1.41,1.77,2.73,1.29.88-.31,1.73-.74,2.62-1,.41-.12.74.24.94.62.72,1.43,2,1.7,3.43,1.68,1.62,0,3.24-.15,4.86-.12.74,0,1.62,0,2.1,1.15-1.27,0-2.44.11-3.62.13-3.92.08-7.84,0-11.76.33-2.27.18-4.57-.07-6.84.41a5.26,5.26,0,0,1-3.47-.88c-.7-.36-.92.1-1,.74-.18.94-.77,1.53-1.71,1.05-1.68-.85-3.43-.66-5.18-.61-.38,0-.78.05-.26.64.31.35,0-.25.41.13a1.45,1.45,0,0,1,.2.32c-.67.65-1.52.37-2.29.39a31.52,31.52,0,0,0-6.06.42,12.19,12.19,0,0,1-4-.14c-.65-.08-1.51-.1-1.53.84,0,.78.73,1.08,1.41,1.19,1.07.16,2.15.25,3.23.33.63.05,1.28,0,2,0-.16.37-.2.73-.36.8a11.37,11.37,0,0,1-1.9.61c-3.08.73-6.1,1.29-6.81-3.32-2.67,2.79-4.49,3.41-8,3a1.87,1.87,0,0,1-1.53-1.14,3.65,3.65,0,0,0-2.7-1.6c-.36-.09-1-.06-.94.36.48,2.14-1.15,1.8-2.19,1.79a49.84,49.84,0,0,1-8.1-.28,9.13,9.13,0,0,0-2.81,0,10.84,10.84,0,0,1-4.43,0,6.39,6.39,0,0,0-3.6.19c-.63.2-1.69.25-1.68.89,0,1.15,1.18.82,1.9.85,2,.08,4.06,0,6.09.07a4.06,4.06,0,0,1,2.74.55c1.7,1.43,3.44,1.29,5.28.34.32-.16.81-.45.89.16,0,.24-.46.68-.79.8a6.59,6.59,0,0,1-2,.46c-3.77.2-7.46,1.25-11.67.93a8.31,8.31,0,0,0,5,1.12c3-.09,5.95-.23,8.93-.21a15.37,15.37,0,0,0,7.5-1.37,4.76,4.76,0,0,1,3.9-.23,18.8,18.8,0,0,0,8.36,1.06,1,1,0,0,1,1.25.77c.1.46-.77,1.37-1.3,1.38a2.66,2.66,0,0,1-1.17-.12,9.42,9.42,0,0,0-6.36-.45,10.24,10.24,0,0,1-3.62-.05,19.12,19.12,0,0,0-7.27.1,5.88,5.88,0,0,1-2,.17,26.65,26.65,0,0,0-7.67.57,15.44,15.44,0,0,1-6,0,19.38,19.38,0,0,0-4.44-.33c-4.33,0-8.66.17-13,.26a4.21,4.21,0,0,1-2.7-.73c5.73-.48,11,0,16.86-.73-2.81-1.3-4.12-1.57-5.5-1.28-.66.14-1.36.63-1.94.51-3.4-.73-6.72.21-10.07.26-.79,0-1.69,0-2-1-.25-.77.55-1.71,1.65-1.94.4-.08.82-.06,1.21-.16,1.07-.27,2.51.41,3.05-1.2-.91-.89-2-.41-3.08-.47a9.45,9.45,0,0,0-3.55.71,9.25,9.25,0,0,1-5.58.44,5.3,5.3,0,0,0-2.41-.06,39.55,39.55,0,0,1-7.68.63,1.77,1.77,0,0,0-.79.15.93.93,0,0,0-.47.55.75.75,0,0,0,.37.6c3.42,1.22,6.81,2.58,10.59,2,1.41-.21,1.84.76,2,2.16a181.75,181.75,0,0,1-20.33.88c2.19-1.25,4.17-.21,5.61-1.4.18-.59-.23-.72-.62-.85a24.4,24.4,0,0,0-10.44-.74,145.19,145.19,0,0,1-17.81.85,8.28,8.28,0,0,0-1.22,0q-3.21.36-6.41.77c-.07,0-.11.2-.3.55,2,0,3.86,0,5.72.15s3.48.33,5.25.5c0,1.12-.87.9-1.41,1a37.75,37.75,0,0,1-10.87.86,64.12,64.12,0,0,0-18.92,1.73,4.23,4.23,0,0,0-1.84.78c-3.57,3.18-7.85,3.37-12.25,3a92.19,92.19,0,0,0-18.57,0,24.19,24.19,0,0,1-8.09-.25,3.34,3.34,0,0,0-1.19-.2c-4.27.67-8.66-.09-12.89,1-.92.23-1.8.65-2.75.19-1.47-.72-2.9-.35-4.34.13-1.79.6-3.59,1.2-5.39,1.77a9.9,9.9,0,0,1-2.35.6,92.56,92.56,0,0,0-10.1.87,3.64,3.64,0,0,1-2-.14,5.4,5.4,0,0,0-4.31-.3,1.84,1.84,0,0,1-1.19-.12c-3.64-1.5-7.47-1-11.24-1-1.75,0-3.5.22-5.26.28a19.2,19.2,0,0,1-2.4-.14l-12-1.28c-.52-.05-1.22.15-1.21-.64,0-.28.53-.55.79-.84s.39-.44.38-.65-.31-.43-.51-.44a6.67,6.67,0,0,0-1.61,0c-4.85.6-9.74.39-14.6.65-.27,0-.58.14-.81.05-3.57-1.46-7.2-.14-10.8-.18-4.32-.05-8.64,0-13,.38-2.78.23-5.64.35-8.46.31-.82,0-.92-.32-.33-1.53.25-.51.12-.75-.33-.77-.8,0-1.61.07-2.42.12-2.07.12-4.06-.06-5.72-1.5a3.9,3.9,0,0,0-2.62-1c-3,0-6-.42-8.91.17A4.86,4.86,0,0,1,62,324c-.92-.6-1.66-.41-2.43.53a1.21,1.21,0,0,1-2.05-.27c-.48-1.07-1.95-.49-2.25-1.48s.84-1.64,1-2.57c0-.11-.07-.25-.1-.34H39.89c.63-1,1.5-.57,2.14-.71a17.4,17.4,0,0,1,2.8-.32c.81-.06,1.62,0,2.42-.07s1.63-.12,2.43-.25,1.85-.37,2.77-.57,1.57-.36,2.48-.57c-.48-1.11-1.38-.71-2-.7-3,0-5.95.16-8.92.22a11.9,11.9,0,0,1-5.18-.81l0,0a5.72,5.72,0,0,0-2.66-.88c-.63-.09-.67-.69,0-1.75-1.15,0-2.18,0-3.2,0s-2.15-.16-3.23-.22c-.53,0-1.18,0-1.23-.69s.57-.83,1-1.07a16,16,0,0,1,7.78-1.91c2.29.08,4.58-.13,7.26-.22-1.76-1-3.46-.16-4.87-.92.55-.8,1.53-.23,2.19-.73-.14-.76-.79-.43-1.21-.52a7,7,0,0,0-1.22-.06,17.06,17.06,0,0,1-6.7-1.12c-2-.9-4.27-.47-6.43-.55-1.48,0-3-.07-4.45-.15-.15,0-.41-.38-.39-.56a.93.93,0,0,1,.47-.55,1.84,1.84,0,0,1,.78-.2l14.93-1.44c.75-.08,1.59.6,2.25-.24a1.14,1.14,0,0,0-1.27-.8,95.5,95.5,0,0,1-16.51-1.85A64.8,64.8,0,0,0,10.06,299a11.76,11.76,0,0,1-3.55-.44c1.26-.37,2.53-.72,3.78-1.12a.72.72,0,0,0,.35-.6.86.86,0,0,0-.47-.57c-.74-.3-1.5-.52-2.53-.86a7,7,0,0,1,4-1c2.43-.17,4.89-.09,7.12-1.3,1.12-.61,2.39,0,3.83-.49-1-1-2.07-.67-3-.73s-2.14,0-3.31,0c.5-1.32,1.52-.7,2.24-.93.51-.16,1.21-.16,1.27-.79s-.75-.61-1.18-.87a2.56,2.56,0,0,1-.41-.47c1.17-.69,2.34-1.53,3.65-1.36,2.22.29,3.74-1.09,5.57-1.8-4.56-.13-9.08-.05-13.83-.51,1.15-1,2.37-.27,3.31-.9-.08-.82-.78-.48-1.2-.62s-.84-.13-.74-.67c0-.15.41-.36.63-.35,1.48.07,2.95.47,4.43.08a13.07,13.07,0,0,0,1.91-.66.85.85,0,0,0,.46-.59.8.8,0,0,0-.74-.82c-.93-.13-1.87-.2-2.82-.26s-2.16-.06-3.23-.14a.8.8,0,0,1-.61-.41c-.17-.52.24-.74.65-.79,3.89-.44,7.78-.86,11.73-1.29.16-.85-1.17-.85-1.14-1.77a1.65,1.65,0,0,0-1-1.62c-.74-.29-1.54-.45-3.14-.9,2.57-.23,4.36-.36,6.13-.57s3.76-.5,5.63-.76a37.89,37.89,0,0,0,5.66-1.1c-.81-.1-1.61-.23-2.42-.28s-1.89-.1-2.84-.09c-1.29,0-2.42-.12-2.88-1.63a1.29,1.29,0,0,0-1.32-.75c-.81,0-1.63-.06-2.44,0-7.31.37-14.61,0-21.92-.05-.71,0-1.63.35-2.08-.7,1-.8,2.1-.05,3.13-.14a23.34,23.34,0,0,1,3.24-.09,17.35,17.35,0,0,0,4.43-.36c2.65-.55,5.3-1.15,8-.71A4.18,4.18,0,0,0,24,266a31.91,31.91,0,0,1,10.47-.91c-1.37-.45-.46-.1-.74-.56a.47.47,0,0,0-.33-.2L21,264.08c.41-1.11,1.55-.47,1.94-1.13.11-.19.14-.62,0-.7a1.93,1.93,0,0,0-1.07-.46,22.87,22.87,0,0,1-8.34-1.42,18.53,18.53,0,0,0-3.21-.44c-.89-.16-1.09-1.13-.52-1.92a2.75,2.75,0,0,1,2.06-1.1q6-.89,12-1.84c.51-.08,1.11,0,1.34-.68-8.51-.09-15.16-.81-18.3-2,2.94-1.22,5.94-.32,8.93-.69-.29-.82-1.12-.38-1.54-.75-.09-.09-.27-.19-.26-.27s.05-.63.17-.67a25.19,25.19,0,0,1,4.29-1.15,46.73,46.73,0,0,0,9.72-2.77.71.71,0,0,0,.31-.63.78.78,0,0,0-.52-.51,13.34,13.34,0,0,0-2,0c-2.42.13-4.85.28-7.55.45-.19.11-.13-.92.14-.45s-.16,0,.36-.14c.37-.13,1-.18,1.07-.41.18-.55-.4-.56-.76-.58a19.63,19.63,0,0,0-3.25-.07c-1.18.13-.52-1.91-2-1.47a9.25,9.25,0,0,1-2.83,0c-1.06,0-2.13-.1-3.24-.16.13-1.1,1-1,1.48-1.06a53.77,53.77,0,0,1,5.65-.46c4.66-.06,9.07-1.43,13.55-2.45.82-.18.8-.24,2.6-3.27-.89-.61-1.83-.06-2.74-.08-1.64,0-2.69-.38-2.36-.85.54-.78,1.44-.52,2.19-.7L39,230.56a92.29,92.29,0,0,1,11.52-2.37c.2,0,.37-.29.7-.57-1.16-1-2.52-.86-3.83-.9s-2.69,0-4.08,0c-.14-1,.74-.94,1.22-1.08,1.3-.38,2.63-.6,4-.9,1.59-.36,3.18-.68,4.23-2.15A3.84,3.84,0,0,1,56,221.21c3.16-.07,6.05-1.42,9.15-1.79.26,0,.7-.08.75-.22.45-1.27,2-1.06,3-2.09-3.84,0-7.32-.14-10.79.06a43.71,43.71,0,0,1-4.85.2,28.07,28.07,0,0,0-6.85.41,12.5,12.5,0,0,1-6-.25c-.11-1.05.71-1,1.27-1.09,7.62-1.18,15.25-2.32,22.87-3.49,1.87-.29,3.73-.64,5.59-1a5.5,5.5,0,0,0,3.69-2.3ZM88.38,324.29l0,0Zm8.13,1.63-.33.22.29-.26Zm282.77-70.7-.32.21.29-.25Zm-73.95,53.59a4.25,4.25,0,0,0,.74.3c1.82.4,3.61-.05,3-.65-.95-.86-2-.43-3,0a4.07,4.07,0,0,0-.67.44,1.63,1.63,0,0,0-.31,0,1,1,0,0,0-.19.16ZM108.68,324.29l0,0c-.22.15-.43.31-.66.44-.42.24-1.21.15-1.08.87a.89.89,0,0,0,1.28.57,9.91,9.91,0,0,1,4.33-.3,8.94,8.94,0,0,0,4.78-.57ZM222.62,204.15a.94.94,0,0,0-.94-.63c-2.39-.13-4.71-.77-7.16-.59-4.16.31-8.34.26-12.5.56-4.41.31-8.76,1.51-13.25.83a.6.6,0,0,0-.72.7.75.75,0,0,0,.56.44c4.55.13,9.08,1.57,13.66.29a9.62,9.62,0,0,1,2-.13l17.35-1C222,204.65,222.47,204.65,222.62,204.15ZM309,314.22c5.27.46,15.58-1.27,19.42-3.12-.58-1-1.49-.16-2.14-.41a23,23,0,0,1-2.42-1.33,1.41,1.41,0,0,0-.79-.1c-2.66.42-5.41.3-8,1.27-1.73.65.21,1.42-.08,2.18C313.16,313,311.24,312.92,309,314.22Zm-9,.51a27.5,27.5,0,0,0-6.84,0c-1.06.09-2.13.15-3.2.21-3.22.17-6.43.32-9.65.5a2.25,2.25,0,0,0-1.77.82,1.9,1.9,0,0,0-.3,1.1.77.77,0,0,0,.79.76c2.27-.19,4.59-.07,6.77-.84a21.07,21.07,0,0,1,7.55-1.12A14.27,14.27,0,0,0,300,314.73Zm-113.84,15.2c1.85.05,2.94,0,3.9-.62a7.54,7.54,0,0,1,5-1.21,1.17,1.17,0,0,0,.77-.18,1.2,1.2,0,0,0,.3-.63c0-.08-.13-.28-.21-.29-2.62-.24-5.35-1.2-7.57,1.18a1.7,1.7,0,0,1-2.22.31,4,4,0,0,0-2.25-.8c-.55,0-1.18.1-1.42.62-.33.74.38.9.86,1C184.51,329.62,185.71,329.84,186.16,329.93ZM442.72,208.14c1.75-.25,3.4.21,4.94-.47a.87.87,0,0,0,.39-.63,1,1,0,0,0-.32-.7,2,2,0,0,0-2.26-.35c-1.53.91-3.08.64-4.69.51a5.5,5.5,0,0,0-1.93.37c-.18,0-.36.42-.36.63s.25.6.39.61C440.22,208.15,441.55,208.14,442.72,208.14Zm2.09-4.22c1.53,0,2.34.06,3.13,0a2.68,2.68,0,0,0,2.59-2.1.77.77,0,0,0-.3-.67,3,3,0,0,0-3.07-.09,15.41,15.41,0,0,1-3.9,1.83.39.39,0,0,0-.17.33c.12.21.27.52.46.56A11.15,11.15,0,0,0,444.81,203.92ZM64.08,320.46c.13.2.17.36.24.37,3.63.47,7.23-.13,10.84-.36.32,0,.86-.47.86-.71,0-.8-.69-.63-1.19-.6-1.75.09-3.49.24-5.24.31A17.39,17.39,0,0,0,64.08,320.46Zm313.75-12.35c2.62,1.69,5.4,1,8.15.88.15,0,.41-.4.39-.6s-.32-.52-.49-.52C383.19,307.92,380.51,308,377.83,308.11ZM447.63,275c-2.37-.49-3.86.82-5.29,2.26-.28.28-.42.77-.07,1a1.16,1.16,0,0,0,1.07.15,17.13,17.13,0,0,0,2.16-1.74C446.15,276.07,447.23,276,447.63,275ZM315,192.65c.75,0,1.14,0,1.53,0a.78.78,0,0,0,.77-.74.79.79,0,0,0-.71-.79,9,9,0,0,0-3.89.14.78.78,0,0,0-.46.53.71.71,0,0,0,.39.54C313.55,192.48,314.46,192.58,315,192.65Zm122,66.26a6.87,6.87,0,0,0,4.87,1.2.77.77,0,0,0,.45-.55.76.76,0,0,0-.31-.62A7.55,7.55,0,0,0,437,258.91Zm9.36-41.49c3,1.33,4.66,1.4,8.76.49C451.75,218.06,449.11,217.54,446.36,217.42ZM33.54,297.28l.09-.53H24.79c-.12,0-.23.13-.35.2l.27.32ZM333.26,311c1.61-.1,2.55-.13,3.48-.24.19,0,.35-.32.49-.52,0,0-.09-.29-.17-.31a9.27,9.27,0,0,0-5.14.27c-.09,0-.16.24-.16.36s.11.33.18.34C332.6,310.94,333.26,311,333.26,311Zm42.92-119v.46c1.73,0,3.47,0,5.2,0a.62.62,0,0,0,.59-.82.78.78,0,0,0-.63-.4C379.61,191.38,377.9,191.66,376.18,191.93Zm-110,121.65a12.24,12.24,0,0,0-6.58-.39c-.16,0-.28.38-.37.6,0,0,.17.28.25.28C261.75,313.92,264,313.75,266.22,313.58Zm-112-8.07c2.3,0,4.43,0,6.56,0,.48,0,1,.17,1.57-.7-2.3,0-4.43,0-6.56,0C155.29,304.83,154.72,304.64,154.21,305.51Zm159.26,3.27a5.7,5.7,0,0,0,1.15-.31.76.76,0,0,0,.36-.62c-.21-.75-1.93-1.41-2.71-1.06a.8.8,0,0,0-.28.68,1.62,1.62,0,0,0,.36,1C312.61,308.73,313.09,308.7,313.47,308.78Zm125.68-93.86c-.81.08-1.12.3-1.23.7a.78.78,0,0,0,.47.95,4.67,4.67,0,0,0,1.48.32c.39,0,.84-.19.83-.61a1.29,1.29,0,0,0-.49-.95A3.52,3.52,0,0,0,439.15,214.92Zm-44-24.95s-.41,0-.39.54a.87.87,0,0,0,.47.58,4.79,4.79,0,0,0,1.49.51c.75.09,2,.41,2.14-.28.19-1.06-1.07-.73-1.76-.9Zm65.29,23.64a7.87,7.87,0,0,0,1.44,0c.18,0,.46-.32.44-.44a.83.83,0,0,0-.45-.55,5.12,5.12,0,0,0-3.05-.2c-.11,0-.28.19-.27.25.06.23.13.58.28.63A15.9,15.9,0,0,0,460.46,213.61ZM424,290.31a6.9,6.9,0,0,0-3.85.33c-.19.1-.28.4-.41.61.22.12.45.35.66.33a15.31,15.31,0,0,0,2.33-.39C423.13,291.08,423.76,291.17,424,290.31Zm44.55-72.56c.52-.08,1.17-.18,1.82-.3.06,0,.13-.21.12-.32a.5.5,0,0,0-.18-.33,2.84,2.84,0,0,0-3-.1c-.18.08-.27.41-.35.64,0,0,.18.21.29.23C467.56,217.65,468,217.68,468.5,217.75ZM464,237.21a5.14,5.14,0,0,0,4.06.65c.19,0,.32-.37.47-.57-.2-.15-.41-.43-.61-.42C466.84,236.92,465.82,237,464,237.21Zm-4.84-20.53c1.44,0,2.68,1.57,4.15.5a.39.39,0,0,0-.05-.37C461.91,215.73,460.46,216.58,459.11,216.68Zm6.28,30.77c-.09-.24-.12-.61-.26-.67a2.16,2.16,0,0,0-2.49,1.21c0,.13.26.46.41.47A2.45,2.45,0,0,0,465.39,247.45Zm-20.61-27.08c0-.25.05-.6-.09-.72a1.76,1.76,0,0,0-1.84-.41.64.64,0,0,0-.44.92A1.5,1.5,0,0,0,444.78,220.37ZM261.72,204.94l0,.6c.8,0,1.6.05,2.39,0s1.45.26,2.21-.59Zm-231.67,70,.11.56a18.56,18.56,0,0,0,2.36,0c.62-.07,1.4.28,1.91-.53Zm172.21,52.44a.36.36,0,0,0-.3-.55,3.21,3.21,0,0,0-2.62.28.5.5,0,0,0-.09.35.46.46,0,0,0,.17.32A2.7,2.7,0,0,0,202.26,327.36Zm61.74-9.9c-.45-.65-1.14-.45-1.73-.44-.44,0-1.2-.13-1,.7,0,.22.64.41,1,.42A1.83,1.83,0,0,0,264,317.46Zm170.78-40.55a2.52,2.52,0,0,0-2.21-.33.41.41,0,0,0-.23.3c0,.1.07.31.15.32.65.16,1.31.3,2,.42a.44.44,0,0,0,.31-.18C434.82,277.35,434.78,277.2,434.78,276.91Zm-312,47.71c-.56,0-1,.11-.93.61s.55.53,1,.53.9-.05.76-.56C123.48,324.92,123,324.76,122.76,324.62Zm356-90.26c-.14-.6-.62-.75-1.13-.76-.18,0-.54.24-.53.35.05.63.56.76,1.08.76C478.38,234.7,478.57,234.48,478.77,234.36Zm-43.55,21.9c-.42,0-.76.2-.67.66,0,.19.31.41.51.47.39.12.81,0,.87-.44S435.62,256.32,435.22,256.26ZM434,275.19a2.9,2.9,0,0,0-2.84-.12A3.46,3.46,0,0,0,434,275.19Zm17.86-70.43a.65.65,0,0,0,.81.56c.19,0,.48-.29.48-.45,0-.46-.4-.6-.78-.54C452.18,204.36,452,204.61,451.86,204.76ZM320.7,307.44a.4.4,0,0,0-.19-.63.82.82,0,0,0-1,.25.38.38,0,0,0,.18.63A.85.85,0,0,0,320.7,307.44ZM216.46,211.05c1.24.16,2,.53,2.61-.35A3.45,3.45,0,0,0,216.46,211.05Zm168.86-20.56a.6.6,0,0,0-.72-.67.35.35,0,0,0-.29.56,1,1,0,0,0,.53.47C385,190.88,385.17,190.6,385.32,190.49Zm-110,128.2a3.88,3.88,0,0,0-.46-.52c-.05,0-.26.06-.33.15-.21.26-.17.55.15.62S275.12,318.78,275.34,318.69Zm164.1-43.95c-.31.1-.85-.09-.81.46,0,.12.69.23,1.07.25.22,0,.66-.21.65-.28C440.27,274.65,439.8,274.8,439.44,274.74Zm1.4-36.32c.34.17.55.36.75.35a6.41,6.41,0,0,0,1.13-.21c-.2-.12-.4-.32-.6-.32A8,8,0,0,0,440.84,238.42Zm-63.26,64.75.95-.38c-.22-.42-.62-.43-1-.42s-.82-.06-.75.5C376.8,303,377.22,303,377.58,303.17Zm88.87-89.78c-.28.14-.34.34-.15.58.07.08.27.18.31.14a3.16,3.16,0,0,0,.43-.46ZM68.66,310.72c.1-.07.29-.13.3-.21a.38.38,0,0,0-.44-.49.44.44,0,0,0-.31.2C68.16,310.54,68.33,310.71,68.66,310.72Zm-6,.17a1.74,1.74,0,0,0-.66-.29,1.88,1.88,0,0,0-.66.28c.22.11.44.3.66.3S62.41,311,62.63,310.89Zm191.19,13.24c.34,0,.59-.15.46-.36s-.44-.19-.67-.22-.59.15-.46.36S253.59,324.06,253.82,324.13ZM435,207.93l-.51.38c.18.13.35.35.54.38s.61-.08.64-.19C435.77,208,435.31,208,435,207.93ZM113.72,305.8c-.37,0-.72,0-1.06,0,0,0,0,.18-.08.27.34,0,.69.07,1,.07A1.85,1.85,0,0,0,113.72,305.8Zm355.63-57,.34-.14a5.71,5.71,0,0,0-.29-.61s-.22.09-.33.13C469.16,248.38,469.25,248.58,469.35,248.79Zm-40.69,8.4c-.13-.19-.24-.51-.4-.53a.81.81,0,0,0-.67.28c-.16.24,0,.52.36.51A2.55,2.55,0,0,0,428.66,257.19Zm-400.15,5.2c.23-.06.56,0,.67-.19s-.07-.4-.41-.36-.55,0-.66.18S28.18,262.4,28.51,262.39Zm246.26-57.87a3.13,3.13,0,0,0-.44.36s.09.26.15.26a3.13,3.13,0,0,0,.6-.1ZM20.29,297.24a2.48,2.48,0,0,0-.1-.41c-.35,0-.7.06-1.05.1,0,.1.05.29.08.29C19.57,297.25,19.92,297.24,20.29,297.24Zm450.14-65a1.49,1.49,0,0,0-.08-.37l-1.05.06c0,.1,0,.29.06.29C469.71,232.22,470.06,232.22,470.43,232.22ZM39.77,313.4c.1-.07.3-.15.29-.21a.69.69,0,0,0-.8-.61c-.1,0-.29.15-.28.21C39,313.24,39.33,313.42,39.77,313.4ZM200,211.5c-.12,0-.32,0-.35.11-.11.28.06.43.42.35a4,4,0,0,0,.64-.27ZM104.8,200.17c.17-.12.44-.21.49-.36s-.14-.41-.43-.35a.47.47,0,0,0-.28.19C104.42,199.9,104.51,200.08,104.8,200.17Zm308.13,87.27c0-.31-.1-.5-.41-.51a.33.33,0,0,0-.27.2.39.39,0,0,0,.41.51C412.75,287.65,412.84,287.51,412.93,287.44Zm-9.84-98.58c-.12.06-.32.1-.34.18-.08.36.1.49.46.33.09,0,.14-.21.2-.31ZM15.34,297.3l.27-.22a3.38,3.38,0,0,0-.58-.27c-.06,0-.17.13-.26.21ZM99,316l-.26.09c0,.09,0,.23.1.26s.17-.05.26-.09Zm292.5-15.45.32-.21c-.09-.09-.16-.24-.26-.26-.37-.09-.54.06-.42.37C391.17,300.48,391.38,300.48,391.5,300.51Zm57.57-35-.13.27.27.13c.05-.09.14-.2.12-.27S449.16,265.59,449.07,265.55Zm-14.69-12.21c.12,0,.3,0,.35-.05.17-.24,0-.39-.31-.35a1,1,0,0,0-.29.18Zm-329.61,72.3c-.2-.09-.39-.19-.59-.26,0,0-.09.19-.14.29l.58.27Zm191.8-131.3-.19-.27-.14.29Zm-168,131.29.24-.15c-.07-.07-.13-.19-.21-.2s-.16.09-.25.15Zm135.56-4.11a.79.79,0,0,0,.3,0s0-.18,0-.27-.22,0-.3,0S264.11,321.43,264.1,321.52Zm-136.91-.9c-.08-.06-.15-.17-.23-.17s-.15.1-.22.16.14.17.22.17S127.11,320.67,127.19,320.62Zm141.8-.86.28.18,0-.29Zm6.68-5.53.14-.19h-.27ZM361,192.06l-.16.23h.31ZM61.85,312.6l.31-.09-.23-.18Zm12.7-3,.27,0-.1-.25ZM25.79,290.05l.27,0-.1-.25Zm-3.52-.13.16.22.13-.25Zm393.07-3.3.28-.08-.21-.17ZM70.08,283.1l-.14.19h.28Zm-30.7-3.91-.24-.14,0,.23ZM452.7,265.26l.06.25.23-.15ZM13.87,258l.25.16,0-.25Zm16.25-4.09.24.15,0-.23Zm86.2-51.85.25-.06-.18-.14ZM252.2,205.9l-.3.08.22.17ZM66.93,250.61l-.27.07.2.15Zm-40.81-8.72.26-.07-.19-.14ZM244,206.69l-.14.19h.27ZM432.6,241.1l-.06-.26-.25.16ZM472.66,236c.19-.22.13-.35-.16-.37a.32.32,0,0,0-.09.25C472.44,236,472.57,236,472.66,236Zm-19.75-23.57-.26.06.19.15Zm-39.11,10,.15-.22h-.3Zm12.1-.88.26-.07-.19-.15Zm7.3-1.09.06.29.26-.18Z"/></g><g id="change1_2"><path d="M461.22,193.15c-.76.22-1.71.22-2.24.69-1.5,1.37-3.19,1.2-4.94,1a45.7,45.7,0,0,0-6-.63c-2,.06-3.8-1.39-5.85-.72-1.12-.74-2.3-.32-3.5-.31-2.89,0-5.77-.51-9.16.15a27.68,27.68,0,0,1,5.47-2.91c.44-.08.71.19,1,.46,1.33,1.16,1.5,1.26,2.39.1,1.67-2.16,3.86-2.08,5.77-1.05a13.9,13.9,0,0,0,5,1.43c4,.52,8,.93,12,1.38Z"/></g><g id="change1_3"><path d="M389.3,184c1.32-1.2,2.68-1,4-1.06,5.25-.16,10.52.34,15.75-.61a3.29,3.29,0,0,1,1.55.29.84.84,0,0,1,.44.63c0,.21-.19.46-.34.66a.91.91,0,0,1-.35.19c-1,.36-8.35,1.26-9.47,1a50.61,50.61,0,0,0-8.85-.76A23,23,0,0,1,389.3,184Z"/></g><g id="change1_4"><path d="M287.4,192.36c-4,.36-7.83.78-11.7,1a34.62,34.62,0,0,0-6.41.91,8.28,8.28,0,0,1-2.39.11c-.64,0-1-1-.72-1.6a2.29,2.29,0,0,1,2.26-1.44c5.65.76,11.32.29,17,.44C286,191.83,286.77,191.62,287.4,192.36Z"/></g><g id="change1_5"><path d="M364.12,184c-.19.15-.39.43-.58.43a41.63,41.63,0,0,0-10.71,1.33,12.73,12.73,0,0,1-6.37,0c-.24-.07-.43-.61-.5-1,0-.17.23-.47.44-.6a5.15,5.15,0,0,1,2.73-.47q7.25-.1,14.48-.13C363.78,183.56,364,183.83,364.12,184Z"/></g><g id="change1_6"><path d="M435.29,292.54c.38.76.93,1.44,1.84,1.27a5.31,5.31,0,0,1,4.51.95c.66.47,1.75.35,3.38.62a8,8,0,0,1-4.44.26,14.47,14.47,0,0,0-4.78,0,29.68,29.68,0,0,1-4.81.09,1.24,1.24,0,0,1-1-.53c-.27-.79.45-.87.94-.9a5.82,5.82,0,0,0,4.36-1.71Z"/></g><g id="change1_7"><path d="M466,255.91h-1.66c-1.88,0-3-.44-2.69-.92.66-1,1.83-1,2.84-1.09a6.68,6.68,0,0,1,3.47.68.76.76,0,0,1,.37.59c0,.2-.26.53-.44.55C467,255.85,466.08,255.91,466,255.91Z"/></g><g id="change1_8"><path d="M477,205.64a14.3,14.3,0,0,1,2.15.12c.65.11,1.84-.49,1.77.7,0,.55-1.17.22-1.81.14a27.69,27.69,0,0,0-7.16.2.51.51,0,0,1-.27-1,9.28,9.28,0,0,1,2.3-.5A22.74,22.74,0,0,1,477,205.64Z"/></g><g id="change1_9"><path d="M496.49,251a56.84,56.84,0,0,1-7.82,0c-.34,0-.94-.25-1-.47-.14-.81.55-.68,1-.65C491.2,250,493.79,249.16,496.49,251Z"/></g><g id="change1_10"><path d="M176.37,196.61c3.35-1.74,4.16-1.82,9.26-1Z"/></g><g id="change1_11"><path d="M477,217.52c-.34-.21-.67-.3-.73-.48a.7.7,0,0,1,.33-.62,7.17,7.17,0,0,1,3.45-.8.8.8,0,0,1,.58.43.72.72,0,0,1-.27.65C479.17,217,478,217.27,477,217.52Z"/></g><g id="change1_12"><path d="M140.36,198.3c3-1,4.44-1.09,7.06-.41-2.56.74-4.75,1.59-7.09.35Z"/></g><g id="change1_13"><path d="M78.24,329.83c-.57-.15-1.22-.28-1.84-.5-.16-.06-.23-.43-.29-.66s.14-.26.25-.3a4.86,4.86,0,0,1,3.45.41c.09,0,.19.26.15.32s-.26.48-.45.54A6.31,6.31,0,0,1,78.24,329.83Z"/></g><g id="change1_14"><path d="M395.22,318.66a13.37,13.37,0,0,1,1.5.47.76.76,0,0,1,.32.65.79.79,0,0,1-.41.59,2.32,2.32,0,0,1-2.57-.21,1.41,1.41,0,0,1-.49-1c0-.43.51-.49.89-.53C394.59,318.65,394.73,318.66,395.22,318.66Z"/></g><g id="change1_15"><path d="M461.74,277.37a3.33,3.33,0,0,1-1-.27,1.56,1.56,0,0,1-.73-.82c-.11-.47.34-.66.74-.72a5.18,5.18,0,0,1,1.18,0c.63.07,1.33,0,1.68.75C463.88,276.76,462.9,277.38,461.74,277.37Z"/></g><g id="change1_16"><path d="M335.7,323.64h6.79c-1,1-2.17.36-3.19.47a29.66,29.66,0,0,1-3.53,0Z"/></g><g id="change1_17"><path d="M67.44,329.4c1.72-.2,3.43-.41,5.14-.58.21,0,.45.22.67.35-.14.19-.29.55-.44.55-1.73,0-3.47,0-5.2,0Z"/></g><g id="change1_18"><path d="M445.12,288c2.43-.7,4.69,0,7.56-.48C450.12,288.71,449,288.75,445.12,288Z"/></g><g id="change1_19"><path d="M410.74,300.39a16.82,16.82,0,0,1,6.1-.39C414.84,301.05,414.84,301.05,410.74,300.39Z"/></g><g id="change1_20"><path d="M187,338.45a7.69,7.69,0,0,1-3.79,1c-.22,0-.44-.19-.66-.29.17-.17.32-.41.53-.5A6,6,0,0,1,187,338.45Z"/></g><g id="change1_21"><path d="M375.38,183.77c0,.12,0,.28-.09.35a2,2,0,0,1-2.23-.15c-.08-.07-.13-.31-.08-.36s.39-.41.61-.43C374.52,183.07,375.22,183.33,375.38,183.77Z"/></g><g id="change1_22"><path d="M485.71,203.62c-2.23.32-3.55.43-4.81-.24a.44.44,0,0,1-.19-.33c0-.1.17-.28.24-.26C482.25,203,483.55,203.24,485.71,203.62Z"/></g><g id="change1_23"><path d="M267.81,338.64h-4.6A6.1,6.1,0,0,1,267.81,338.64Z"/></g><g id="change1_24"><path d="M406.92,319.12c-.29,0-.7-.06-.72-.5s.37-.59.75-.56a.85.85,0,0,1,.6.32C407.72,318.82,407.43,319,406.92,319.12Z"/></g><g id="change1_25"><path d="M254.43,328.45a10.77,10.77,0,0,1,1.36.55.63.63,0,0,1,.1.6,1.56,1.56,0,0,1-2-.6C253.88,328.89,254.19,328.7,254.43,328.45Z"/></g><g id="change1_26"><path d="M73.8,209.64l-3.86.21c-.06-.52.08-.71.4-.78a4.34,4.34,0,0,1,3.43.61Z"/></g><g id="change1_27"><path d="M435.78,300.48a4.77,4.77,0,0,1,3.92-.16A7.11,7.11,0,0,1,435.78,300.48Z"/></g><g id="change1_28"><path d="M443.36,306.4a2.79,2.79,0,0,1-.85-.2c-.17-.12-.21-.4-.31-.61a2.7,2.7,0,0,1,1-.38,1.29,1.29,0,0,1,1.27.65.33.33,0,0,1-.12.3C444,306.27,443.61,306.34,443.36,306.4Z"/></g><g id="change1_29"><path d="M482.4,262.51c-1.58,1-2.37.75-3.15.15Z"/></g><g id="change1_30"><path d="M491.9,231.73c-.14.18-.26.47-.44.51-.56.12-1-.07-1.08-.72a.72.72,0,0,1,.4-.55C491.37,230.85,491.72,231.2,491.9,231.73Z"/></g><g id="change1_31"><path d="M225.47,332.2c.69-.8,1.35-.48,1.94-.49.22,0,.44.18.67.27-.19.11-.38.31-.58.31C226.89,332.3,226.27,332.24,225.47,332.2Z"/></g><g id="change1_32"><path d="M487.06,213.82a.93.93,0,0,1-1.36.13c-.16-.11-.35-.52-.29-.59a1.12,1.12,0,0,1,1.41-.18A.43.43,0,0,1,487.06,213.82Z"/></g><g id="change1_33"><path d="M367.37,183.58c.17-.14.32-.39.5-.41.37,0,.76.08.76.53,0,.15-.28.4-.46.43A.66.66,0,0,1,367.37,183.58Z"/></g><g id="change1_34"><path d="M432.29,303.51a3,3,0,0,1-2.55.17A2.59,2.59,0,0,1,432.29,303.51Z"/></g><g id="change1_35"><path d="M417.58,318.22a2.4,2.4,0,0,1,2.41-.1C419.11,318.76,418.31,318.29,417.58,318.22Z"/></g><g id="change1_36"><path d="M486.43,216.46a.7.7,0,0,1-1,.36c-.18-.07-.41-.42-.37-.57a.63.63,0,0,1,.95-.38C486.21,216,486.3,216.26,486.43,216.46Z"/></g><g id="change1_37"><path d="M230.56,197.83c-.1.21-.13.53-.29.61-.38.2-.74.07-.74-.41a.74.74,0,0,1,.46-.5C230.14,197.49,230.37,197.72,230.56,197.83Z"/></g><g id="change1_38"><path d="M485,221.1c.32.08.79.14.79.21,0,.63-.5.38-.81.4s-.73-.1-.73-.17C484.19,220.92,484.76,221.31,485,221.1Z"/></g><g id="change1_39"><path d="M485.13,226.39l.62.26a3.64,3.64,0,0,1-.46.5s-.24-.07-.31-.16C484.78,226.74,484.84,226.53,485.13,226.39Z"/></g><g id="change1_40"><path d="M436.8,303.46a8.7,8.7,0,0,1,1.2-.14,2,2,0,0,1,.61.26,6.72,6.72,0,0,1-1.09.19C437.32,303.77,437.12,303.6,436.8,303.46Z"/></g><g id="change1_41"><path d="M326.43,322.51a2.26,2.26,0,0,1-.72.09c-.36-.07-.42-.3-.17-.51a.38.38,0,0,1,.37,0A3.57,3.57,0,0,1,326.43,322.51Z"/></g><g id="change1_42"><path d="M247.61,196.67c-.75.4-1.47,1-2.46.41.8-.64,1.69-.26,2.5-.37Z"/></g><g id="change1_43"><path d="M477.45,276.28c.08.29,0,.52-.33.49s-.33-.25-.46-.42.12-.28.16-.27A5.1,5.1,0,0,1,477.45,276.28Z"/></g><g id="change1_44"><path d="M473.6,202.1a2.68,2.68,0,0,1-.73.08c-.4-.07-.43-.28-.07-.4a1.9,1.9,0,0,1,.75,0S473.58,202,473.6,202.1Z"/></g><g id="change1_45"><path d="M63.45,329.43c0,.1,0,.26,0,.29a.47.47,0,0,1-.36.07c-.37-.14-.36-.31,0-.42C63.19,329.34,63.33,329.41,63.45,329.43Z"/></g><g id="change1_46"><path d="M441.36,292.31c-.22,0-.44.05-.67.05,0,0,0-.19-.05-.3l.67-.06S441.34,292.2,441.36,292.31Z"/></g><g id="change1_47"><path d="M309.45,189.24c-.13,0-.34,0-.37-.1-.12-.31.05-.46.42-.37.11,0,.18.16.27.25Z"/></g><g id="change1_48"><path d="M466.38,276.41l-.28.11c0-.1-.12-.25-.09-.27C466.24,276,466.38,276.1,466.38,276.41Z"/></g><g id="change1_49"><path d="M482.4,268.9a.39.39,0,0,1-.64.07c-.08-.08-.08-.23-.11-.35.22,0,.44-.06.66-.06C482.34,268.56,482.37,268.78,482.4,268.9Z"/></g><g id="change1_50"><path d="M171.39,196.08l.27.19c-.09.07-.17.18-.27.2-.34.07-.48-.06-.34-.32C171.09,196.08,171.27,196.1,171.39,196.08Z"/></g><g id="change1_51"><path d="M414.55,183.27c-.09.08-.17.19-.27.21s-.31,0-.35-.06c-.15-.27,0-.42.34-.35C414.37,183.09,414.46,183.2,414.55,183.27Z"/></g><g id="change1_52"><path d="M486.17,206.54l-.39-.42a.82.82,0,0,1,.28-.19c.28,0,.43.13.37.41C486.41,206.42,486.26,206.47,486.17,206.54Z"/></g><g id="change1_53"><path d="M400.49,319.51c.05-.11.07-.28.16-.33.33-.2.51-.08.45.28,0,.09-.18.21-.29.22S400.59,319.57,400.49,319.51Z"/></g><g id="change1_54"><path d="M429.9 175.11L430.2 175.02 430.16 175.26 429.9 175.11z"/></g><g id="change1_55"><path d="M342.31 183.98L342.45 184.2 342.16 184.19 342.31 183.98z"/></g><g id="change1_56"><path d="M338.35 185.6L338.27 185.86 338.06 185.69 338.35 185.6z"/></g><g id="change1_57"><path d="M422.04 187.23L421.97 187.48 421.76 187.31 422.04 187.23z"/></g><g id="change1_58"><path d="M411.16 188.55L411.16 188.84 410.91 188.72 411.16 188.55z"/></g><g id="change1_59"><path d="M389.65,322.08c0,.11,0,.27,0,.3s-.21,0-.32,0,0-.28,0-.3S389.54,322.08,389.65,322.08Z"/></g><g id="change1_60"><path d="M370.91 316.6L370.62 316.69 370.65 316.44 370.91 316.6z"/></g><g id="change1_61"><path d="M460.93 293.92L460.81 293.73 461.06 293.74 460.93 293.92z"/></g><g id="change1_62"><path d="M226.58 199.08L226.81 199.27 226.54 199.38 226.58 199.08z"/></g><g id="change1_63"><path d="M478.73 268.46L479.04 268.56 478.79 268.73 478.73 268.46z"/></g><g id="change1_64"><path d="M443.51,199.08c-.25,0-.5,0-.75,0s-.48-.2-.26-.41c.05-.05.25,0,.35,0a6.38,6.38,0,0,1,.63.43Z"/></g><g id="change1_65"><path d="M494.25 214.28L494.12 214.09 494.38 214.1 494.25 214.28z"/></g><g id="change1_66"><path d="M481.35 219.75L481.28 219.97 481.08 219.82 481.35 219.75z"/></g><g id="change1_67"><path d="M485.97 219.86L486.24 219.78 486.2 220 485.97 219.86z"/></g><g id="change1_68"><path d="M435.33,292.58l.46-.23a.56.56,0,0,1-.2.14,1.45,1.45,0,0,1-.3.05Z"/></g><g id="change1_69"><path d="M458.88 302.87L458.63 302.72 458.91 302.61 458.88 302.87z"/></g><g id="change1_70"><path d="M38.81,316.13l-.47.24a1.3,1.3,0,0,1,.2-.15,1.67,1.67,0,0,1,.31-.05Z"/></g><g id="change1_71"><path d="M247.65,196.71l0,0Z"/></g><g id="change1_72"><path d="M420.72,194.27l0,0Z"/></g></svg>