<?xml version="1.0" encoding="UTF-8" standalone="no"?><svg xmlns="http://www.w3.org/2000/svg" xmlns:xlink="http://www.w3.org/1999/xlink" fill="#000000" height="110.4" preserveAspectRatio="xMidYMid meet" version="1" viewBox="-0.0 -0.4 467.5 110.4" width="467.5" zoomAndPan="magnify"><g id="change1_1"><path d="M20.0265,104.233c-0.0732,0.0236-0.1292,0.0643-0.1881,0.1024c-0.0116-0.0094-0.0243-0.0174-0.0362-0.0266 c0.0511-0.0509,0.1019-0.1016,0.1527-0.1524C19.9798,104.1827,19.9981,104.2047,20.0265,104.233z M53.0215,61.5897 c-0.0045,0.0016-0.0093,0.0029-0.0138,0.0044c0.0045,0.0353,0.0093,0.0709,0.0138,0.1045 C53.0215,61.735,53.0215,61.6623,53.0215,61.5897z M49.1571,20.7902c-0.0142,0.0113-0.0287,0.0223-0.0437,0.0345 c0.0328,0.0329,0.0657,0.0658,0.0985,0.0986c0.0134-0.0375,0.0314-0.0645,0.0437-0.1051 C49.2224,20.8072,49.1903,20.8007,49.1571,20.7902z M58.9379,54.5868c0.0224,0.0221,0.0444,0.0442,0.0664,0.0664 c0.0071-0.0423,0.0108-0.0805,0.0217-0.127C58.9958,54.5462,58.9674,54.5665,58.9379,54.5868z M401.9371,85.6826 c-0.0609-0.0683-0.1254-0.1293-0.19-0.1912c-0.1307,0.0827-0.3009,0.1761-0.5342,0.2801 C401.4854,85.7143,401.7191,85.6924,401.9371,85.6826z M57.6358,71.3637c0.0022-0.0015,0.0041-0.0022,0.0063-0.0035 c-0.1329,0-0.3199-0.0146-0.5364-0.0379c0.0205,0.0155,0.0411,0.0258,0.062,0.0271C57.3469,71.3603,57.5231,71.3633,57.6358,71.3637 z M22.9106,104.6202c-0.0265,0.0263-0.053,0.0528-0.0791,0.0791c0.0433,0.0085,0.0806,0.0118,0.1262,0.0222 C22.9348,104.6833,22.9255,104.6534,22.9106,104.6202z M73.2751,56.3581c-0.0183-0.0332-0.0358-0.0627-0.0538-0.0948 c-0.025,0.025-0.05,0.0501-0.075,0.0752C73.1893,56.345,73.2311,56.3519,73.2751,56.3581z M466.4878,31.9917 c-0.763,0.5098-1.1102,1.5796-2.3208,1.5139c-0.5361-0.0291-0.5756,0.565-0.2079,0.8493c1.14,0.882,0.8616,2.2677,1.2334,3.4016 c0.3098,0.9454-0.0523,1.3524-1.2334,1.5408c-1.0042,0.1601-0.3278,0.355-0.2244,0.775c0.3722,1.5085-0.5768,2.6243-2.1327,2.6772 c-0.4061,0.0138-0.8183-0.0346-1.218,0.0186c-0.1841,0.0245-0.4577,0.2036-0.4861,0.3518c-0.0347,0.1815,0.1269,0.5702,0.2352,0.582 c0.7496,0.0816,0.9564,0.5587,1.233,1.1904c0.6622,1.5114,0.7339,1.4922-0.7033,2.2515c-0.6652,0.3515-1.3539,0.6587-2.0349,0.98 c-0.2718,0.1283-0.6342,0.1686-0.8112,0.3736c-0.5055,0.5842-0.8433,1.3454-1.423,1.8235 c-0.5708,0.4707-1.2703,0.6376-1.5481,1.5399c-0.2971,0.9654-1.3427,0.6648-2.1226,0.6507 c-0.5301-0.0096-0.7205,0.1909-0.6746,0.7042c0.0638,0.711-0.0026,1.4502,0.1684,2.1319c0.414,1.6537,0.3121,1.8594-1.3237,2.0691 c-0.2538,0.0326-0.4916,0.192-0.7365,0.2928c0.1725,0.1726,0.3214,0.3849,0.5245,0.5061c0.1878,0.1121,0.4797,0.0675,0.6447,0.1959 c0.3882,0.3022,0.3337,1.194-0.0717,1.4328c-0.3233,0.1904-0.7089,0.5171-1.0094,0.463c-1.6089-0.2895-2.2409,1.0081-3.1599,1.8364 c-0.1378,0.124-0.2505,0.3298-0.2785,0.5124c-0.1754,1.147-0.5136,1.6585-1.4924,1.5538c-1.4693-0.1572-2.4742,0.4265-3.2895,1.5247 c-0.271,0.3651-0.5133,0.7597-0.7112,1.1689c-0.2411,0.4994,0.7993,1.0009,0.0265,1.5299c0.283,0.3451,0.5663,0.6904,0.8492,1.0355 c-0.6716,0.539-1.308,1.133-2.0285,1.596c-0.4293,0.2761-1.006,0.3126-1.4842,0.5288c-0.1538,0.0697-0.2986,0.382-0.2736,0.5584 c0.0216,0.1514,0.2733,0.3293,0.4565,0.3834c0.2243,0.0663,0.4838,0.0078,0.7275,0.0172c1.2868,0.0487,1.3797,0.1316,1.2095,1.3498 c-0.0306,0.2199-0.3397,0.5855-0.4969,0.5736c-1.1177-0.0851-2.2278,0.7676-3.3455,0.0341 c-0.0571-0.0372-0.2188-0.0311-0.2322-0.0009c-0.3147,0.7073-11.7993-0.2221-12.1863-0.0223 c-0.2005,0.1035-0.4147,0.2918-0.6096,0.2763c-0.9213-0.0731-1.8213-0.8705-2.7072-0.43c-0.9164,0.4555-1.8138,0.4411-2.7478,0.4433 c-3.4172,0.0082-6.8347-0.003-10.2519,0.0151c-0.2658,0.0015-0.5305,0.173-0.7955,0.2654c0.215,0.0704,0.4256,0.1647,0.6458,0.2066 c0.6062,0.1152,1.2535,0.1152,1.8146,0.3373c0.5316,0.2105,0.797-0.8241,1.3816-0.1583c0.3289,0.3746,1.0232-0.2299,1.4055,0.3141 c0.76-0.6568,1.5122,0.0997,2.2823,0.0209c0.8858-0.0903,1.7881-0.0209,2.6829-0.0209c0.8138,0,1.6276,0,2.4413,0 c0.8948,0,1.79,0,2.6848,0c0.3255,0,0.6514-0.0082,0.9762,0.0073c0.0616,0.0029,0.1773,0.117,0.1672,0.1502 c-0.0344,0.1173-0.1,0.3071-0.1762,0.3182c-1.2315,0.181-2.4675,0.3334-3.7001,0.5085c-0.1404,0.0198-0.2665,0.1378-0.399,0.2104 c0.1071,0.0903,0.2016,0.2079,0.3244,0.2666c0.9318,0.4454,1.9915,0.8744,2.8927,0.3344c0.6518-0.3903,1.2192-0.2706,1.8273-0.3202 c30.5818-2.4847,0.9117,2.8385,1.2927,1.0528c-0.0231,0.1095,0.1422,0.3727,0.2177,0.3717c0.6215-0.008,0.9974,0.2566,0.6283,0.8316 c-0.246,0.3834-0.5316,0.9131-1.3521,0.512c-0.5435-0.2656-1.3931,0.0406-2.0927,0.1654c-0.5988,0.1069-0.6992,0.716-0.2561,1.2986 c0.5633,0.7403,0.5611,0.7359-0.3789,1.1812c-0.2729,0.1293-0.5577,0.4532-0.7906,0.4137 c-1.9393-0.3288-3.7449,0.6599-5.6611,0.5244c-0.6962-0.0492-1.3312,0.0661-2.0192,0.4295 c-1.0269,0.5423-2.2375,0.6327-3.4343,0.548c-0.8097-0.0573-1.6291-0.0493-2.4395,0.0013c-0.6428,0.04-1.3136,0.3642-1.9094,0.246 c-0.7746-0.1536-1.3655,0.4076-2.1285,0.2631c-0.6928-0.1313-1.4394,0.0037-2.1599,0.0563 c-0.0489,0.0035-0.0922,0.1413-0.4438,0.3637c-0.0478-0.0463-0.0945-0.0958-0.1508-0.1263 c-0.2621-0.1404-0.6003-0.3645-0.8272-0.2953c-0.4214,0.1285-0.7858,0.4433-1.174,0.6806c0.3468,0.113,0.694,0.2261,1.6179,0.021 c-0.2292,0.2442,0.0978,0.2678,0.4181,0.2331c0.1355-0.0147,0.2576-0.1524,0.3856-0.2342c-0.0276-0.0273-0.053-0.0581-0.0795-0.0878 c0.9571-0.042,1.46,0.2705,2.0259,0.0918c0.0911-0.0287,0.2632,0.2441,0.3748,0.2272c0.9135-0.138,1.8157-0.3569,2.7318-0.4615 c0.8724-0.0996,1.8866,0.1618,2.5993-0.2029c0.6857-0.3507,0.9071-0.1669,1.4215,0.1377c0.24,0.1422,0.8052-0.3936,1.233-0.414 c1.2994-0.062,2.6038-0.0285,3.9062-0.0134c0.1351,0.0015,0.2691,0.1277,0.4035,0.1962c-0.1467,0.1726-0.2606,0.424-0.4468,0.501 c-0.3475,0.1438-0.7563,0.3076-1.1057,0.2513c-2.3458-0.3777-4.3982,0.8577-6.6171,1.1564 c-0.2889,0.0388-0.5521,0.2898-0.8388,0.3168c-1.9654,0.1855-3.9357,0.3247-5.9003,0.5171 c-0.2397,0.0235-0.4569,0.2746-0.6846,0.4202c0.193,0.1801,0.3591,0.4121,0.5846,0.5308c0.7473,0.3931,1.3954-0.556,2.3159-0.0643 c0.6966,0.3721,1.7608,0.1539,2.6441,0.0505c0.8325-0.0974,1.5817-0.5219,2.4865-0.5249c0.6432-0.0022,1.0396,1.1577,1.9012,0.2428 c0.3752-0.3983,1.2386-0.3119,1.9729,0.1311c0.4207,0.2537,1.2617-0.177,1.9094-0.3187c0.2942-0.0644,0.5734-0.1957,0.8676-0.2593 c0.2718-0.0588,0.6368-0.1919,0.8156-0.0734c0.3991,0.2645,0.7108,0.6625,1.0408,1.0219c0.0131,0.0142-0.1575,0.2828-0.2322,0.2777 c-0.7044-0.0474-1.4939,0.0465-2.086-0.2482c-0.6245-0.311-0.6813,0.1949-0.8578,0.39c-0.1295,0.1431-0.0761,0.5834,0.0549,0.7915 c0.1195,0.1901,0.4521,0.2461,0.6906,0.3612c-0.2184,0.0618-0.4457,0.1028-0.6537,0.1902 c-0.3468,0.1456-0.6678,0.4188-1.0228,0.4676c-2.0188,0.2769-4.4135,1.1673-6.1523,2.2631 c-0.5006,0.3154-1.1102,0.6508-1.6668,0.6458c-1.2644-0.0116-2.3772,0.1122-3.1771,1.2517 c-0.1337,0.1906-0.5607,0.1848-0.8567,0.2503c-0.9056,0.2005-1.8101-0.1951-2.7942,0.364 c-0.6107,0.3468-1.6332,0.6202-2.4119,0.5516c-1.024-0.0901-1.7802,0.625-2.7344,0.5623c-0.131-0.0085-0.271,0.1206-0.4065,0.186 c0.1717,0.0974,0.3442,0.28,0.5152,0.279c1.4816-0.0078,3.0151,0.2768,4.3377-0.7227c0.1725-0.1303,0.4136-0.212,0.6313-0.2333 c1.8034-0.1765,3.6072-0.3537,5.4143-0.4892c1.2461-0.0935,2.4089-0.8196,3.7016-0.4845c0.1848,0.048,0.3315,0.2439,0.4961,0.3714 c-0.1751,0.1982-0.3352,0.552-0.5278,0.5708c-2.1479,0.2087-4.2683,0.5046-6.2285,1.4894 c-1.1251-0.3128-1.2531,1.4639-2.4324,1.1498c-0.3069-0.0817-0.7033,0.2491-1.0714,0.306c-0.8202,0.1267-1.4783,0.3401-2.008,1.1345 c-0.3102,0.4651-1.1561,0.7542-1.7817,0.7931c-1.7026,0.1058-3.4175,0.075-5.1257,0.025c-1.5895-0.0465-3.0558,0.6176-4.6841,0.5444 c-5.3897-0.242-10.7551,0.815-16.1574,0.4439c-2.5754,0.8618-5.2355,0.4117-7.8572,0.4449 c-0.5962,0.0075-1.1557,0.7962-1.7687,0.1017c-0.5428,0.756-1.3372,0.3559-2.0207,0.4179 c-0.6462,0.0584-1.3013,0.0125-1.9527,0.0125c-0.7324,0-1.4652,0-2.1976,0c-0.7328,0-1.5089-0.1588-2.1905,0.0273 c-3.0853,0.8421-6.2718,0.012-9.3171,0.5324c-4.1817,0.7147-47.517,0.2191-51.6819,0.4028 c-1.7362,0.0765-3.3832,0.729-5.1736,0.5411c-1.691-0.1773-3.4164-0.0789-5.1239-0.0157c-0.5887,0.0218-1.2867,0.593-1.7299,0.4117 c-1.311-0.5371-2.5168,0.1423-3.7699,0.0709c-1.2983-0.0739-2.6038-0.0164-3.9066-0.0164c-1.3838,0-2.7785,0.1042-4.1473-0.0401 c-0.7866-0.083-1.4507,0.6731-2.2263,0.1837c-0.763,0.7395-1.697,0.2298-2.5455,0.3254c-0.8037,0.0907-1.6257,0.0196-2.4398,0.0196 c-0.8956,0-1.8658-0.2256-2.6725,0.0418c-2.5246,0.8367-5.0899,0.2628-7.6265,0.4429c-2.5362,0.18-5.0727,0.3925-7.6127,0.4745 c-2.5209,0.0814-5.0533-0.0916-7.5664,0.0717c-1.0034,0.0651-2.0475,0.1529-3.0715,0.3804 c-1.0863,0.2414-2.2674,0.0543-3.4071,0.0543c-1.2211,0-2.4421,0-3.6632,0c-1.1397,0-2.2823-0.0527-3.4179,0.0136 c-1.3233,0.0775-2.6937-0.3523-3.9663,0.449c-0.402,0.253-0.9075-0.0382-1.2352-0.435c-0.2998,0.4999-0.7817,0.4855-1.2744,0.4622 c-7.6769-0.362-42.5902,0.7114-50.2656,0.499c-2.6844-0.0743-5.3729-0.039-8.0584,0.0054c-0.76,0.0125-1.6063-0.3358-2.2909,0.386 c-0.0944,0.0997-0.5293-0.1286-0.8086-0.1977c-0.296-0.0732-0.663-0.2843-0.8813-0.1827c-2.0027,0.9322-4.1111,0.4172-6.1579,0.4362 c-7.8139,0.0729-40.7339,0.0099-48.5481,0.0538c-0.9885,0.0056-2.0748-0.4486-3.0114,0.4226 c-0.1445,0.1345-0.7921-0.3504-1.2281-0.4233c-0.2833-0.0474-0.6245,0.2426-0.9064,0.1929 c-1.8083-0.3186-1.8825-0.3275-4.1145,0.233c-0.2281,0.0572-0.5249-0.0531-0.7089,0.0538 c-0.5995,0.3485-0.9269-0.6197-1.6485-0.2149c-0.5622,0.3157-1.3939,0.1684-2.1073,0.1949 c-0.6503,0.0242-1.3065,0.0505-1.952-0.0105c-0.445-0.042-0.8698-0.2665-1.3148-0.3455c-0.4644-0.0823-1.1468-0.307-1.3797-0.0898 c-1.0583,0.9876-2.2092,0.0187-3.288,0.2535c-0.1441,0.0314-0.3961-0.2535-0.7022,0.0289 c-0.1404,0.1294-0.7171,0.0745-0.7768-0.0497c-0.1949-0.4074-0.0896-0.7775,0.4957-0.7616c0.0728,0.002,0.1467-0.0363,0.2199-0.0559 c-0.0612-0.1433-0.0821-0.3581-0.19-0.4187c-1.1247-0.6327-1.8769-0.702-2.036-0.1807c-0.0493,0.1616,0.2243,0.5433,0.4323,0.6324 c0.2956,0.1267,0.657,0.09,0.2632,0.5159c-0.1624,0.1755-0.3572,0.469-0.5286,0.4627c-0.8455-0.031-1.6601,0.0953-2.5272-0.3882 c-0.5372-0.2996-1.4361,1.0085-2.298,0.0077c-0.1202-0.1396-0.7496,0.2367-1.1412,0.2311c-0.3621-0.005-0.7227-0.1979-1.0811-0.3168 c-0.1419-0.0471-0.2762-0.1181-0.4144-0.1782c0.159-0.1028,0.3143-0.2871,0.4778-0.2942c0.7309-0.0323,1.4659,0.0114,2.1961-0.0315 c0.1878-0.011,0.3632-0.2372,0.5439-0.3647c-0.1725-0.1727-0.3453-0.3453-0.5181-0.518c-0.6171,0.6622-1.2016-0.4255-1.7496-0.0599 c-0.5678,0.3788-0.9948,0.2444-1.5753,0.0223c-0.4972-0.1901-1.1247-0.0393-1.6944-0.0393c-0.6514,0-1.3103,0.0618-1.9516-0.0179 c-0.6107-0.0758-1.2487-0.6171-1.7019,0.2803c-0.0239,0.0469-0.4364,0.0076-0.4819-0.0841 c-0.4185-0.8435-0.9258-0.3438-1.4962-0.2109c-0.6178,0.1439-1.4611,0.2775-1.9072-0.0249 c-0.6663-0.4518-1.4286,0.1793-1.5264,0.0199c-0.4442-0.7233-1.0254,0.202-1.5074-0.2604c-0.2688-0.2579-0.8978-0.168-1.3663-0.1838 c-0.7317-0.025-1.5163,0.1581-2.1838-0.0508c-0.7395-0.2313-1.2558,0.7011-2.0957,0.1069 c-0.4883-0.3454-1.4208-0.0628-2.1532-0.0628c-1.3842,0-2.768,0-4.1518,0c-0.7324,0-1.5197-0.1673-2.1816,0.0492 c-0.6077,0.1986-1.0374-0.9915-1.5805-0.0864c-0.4928-0.4629-1.149-0.7656-1.638-0.2579c-0.604,0.6268-1.0818-0.9107-1.5544,0.0304 c-2.1752-0.0746-4.3504-0.1491-6.5256-0.2238c-0.3016-0.8052-0.9291,0.096-1.4484-0.2859 c-0.4327-0.3183-1.2203-0.1732-1.8523-0.1971c-0.6503-0.0246-1.3021-0.0054-1.9535-0.0054c-0.651,0-1.3162,0.0789-1.9479-0.0318 c-0.3397-0.0596-0.6223-0.445-0.9306-0.6834c0.2915-0.2501,0.5506-0.6208,0.8855-0.7122c0.2684-0.0732,0.6783,0.3464,0.9355,0.2649 c0.2139-0.0678,0.361-0.3658,0.6402-0.5471c0.084,0.0675,0.165,0.1398,0.2579,0.1903c0.0183,0.0099,0.0982-0.094-0.0698-0.2927 c0.1478,0.0478,0.0706-0.0471-0.0063-0.142c-0.022,0.0217-0.0437,0.0436-0.0653,0.0654c-0.277-0.2886-0.3879-0.4741-0.495-0.6514 c-0.24-0.3959-0.302-0.8028,0.2721-0.8618c0.7201-0.074,1.4544-0.0287,2.1816-0.0053c0.1008,0.0033,0.196,0.1754,0.2938,0.2692 c-0.0571,0.0571-0.109,0.1559-0.1725,0.1642c-0.2352,0.0303-0.4812,0.0002-0.7108,0.0499 c-0.3311,0.0718-0.6514,0.1934-0.9765,0.2938c0.1441,0.2639,0.2426,0.5723,0.4453,0.7785c0.1833,0.1866,0.47,0.33,0.7298,0.37 c0.3662,0.0565,0.7541,0.0279,1.3088,0.1358c-0.0329,0.0327-0.0653,0.0653-0.0982,0.098c0.0967,0.0752,0.1881,0.1594,0.2942,0.2169 c0.0183,0.0099,0.0982-0.094-0.0698-0.2927c0.1478,0.0477,0.0706-0.0472-0.0063-0.142c-0.0138,0.0135-0.0273,0.0271-0.0407,0.0407 c-0.0952-0.2115-0.0545-0.3372-0.0052-0.4571c1.4495,0.622,3.0625-0.8533,4.5232,0.3684c0.2057,0.1721,0.9523-0.3027,1.4488-0.4779 c-0.0922-0.2299-0.2367-0.4545-0.2602-0.6912c-0.0213-0.2128,0.0183-0.5283,0.1583-0.6417 c0.3942-0.3194,3.2436-0.7585,3.6206-0.3667c0.831,0.8636,1.6683-0.5014,2.3958,0.1814c0.0515-0.1412,0.1478-0.2844,0.1419-0.4232 c-0.006-0.1388-0.093-0.3729-0.181-0.3914c-0.308-0.0648-0.6312-0.0692-0.9489-0.07c-1.9505-0.0049-3.9028,0.0469-5.8507-0.0203 c-1.2393-0.0427-2.5033,0.2936-3.7266-0.4241c-0.4838-0.2838-1.4749-0.3111-1.8859,0.0023 c-1.305,0.9955-2.3693,0.0729-3.4373-0.2913c-0.1937-0.066-0.3546-0.1224-0.4995-0.1489c-0.1068,0.0029-0.2124,0.0058-0.321,0.0086 c-0.1262,0.0375-0.2467,0.122-0.3759,0.2805c-0.4588,0.5637-0.8784,0.8883-1.5395,0.1633c-0.5689-0.6237-1.0949,0.5222-1.8448,0.149 c-0.5898-0.2935-1.3995-0.1194-2.102-0.2185c-0.9892-0.1394-2.0591,0.2935-3.0017-0.1751 c-2.3574,0.0466-4.5557,0.0859-6.2098,0.1122c-0.0015,0.0058-0.0034,0.0093-0.0049,0.0152c-0.0056-0.0049-0.0116-0.01-0.0175-0.0149 c-1.828,0.029-2.9875,0.0423-2.9576,0.0322c0.5921-0.2006,1.1382-0.54,1.6937-0.842c0.0052-0.0026,0.0019-0.0234,0.0045-0.031 c0.3005,0.0062,0.6357,0.0123,0.9997,0.0182c0.0747-0.0395,0.1489-0.0701,0.2221-0.0676c2.7131,0.0912,5.3606-0.8509,8.089-0.5147 c0.1262,0.0155,0.2706-0.1176,0.4069-0.1814c-0.1676-0.0989-0.333-0.2789-0.5036-0.2835c-0.9743-0.0275-1.9531-0.061-2.924,0.0049 c-0.5648,0.0383-0.8814-0.2253-1.239-0.5711c-0.5902-0.5711-0.5794-0.6021,0.2535-0.928c0.2236-0.0875,0.3655-0.3719,0.5607-0.5478 c0.1161-0.1043,0.2635-0.1734,0.3968-0.2583c0.1392,1.2494,0.7205,0.8965,1.3491,0.3722c0.763,0.9881,1.1848,0.1397,1.706-0.2943 c0.075-0.0626,0.4144,0.0189,0.4353,0.0907c0.2135,0.732,0.6913,1.3905,0.5413,2.2368c-0.0358,0.201,0.321,0.5708,0.5771,0.6876 c0.1531,0.07,0.4584-0.2081,0.7014-0.3149c0.2061-0.0905,0.4215-0.16,0.6327-0.2387c-0.2038-0.084-0.4099-0.245-0.6103-0.2376 c-0.5667,0.0206-0.9892-0.0708-0.841-0.7725c0.0959-0.4543-0.4017-1.2125,0.6484-1.22c0.3438-0.0025,0.8086-0.1925,1.0038-0.4556 c0.4913-0.6606,1.1386-0.4727,1.7612-0.4977c0,0.1629-0.0105,0.3265,0.0019,0.4883c0.0668,0.8847,0.685,1.3023,1.3144,0.8686 c0.2639-0.1817,0.476-0.4436,0.6943-0.6845c0.3647-0.4024,0.6891-0.9,1.2517-0.2014c0.0489,0.0604,0.5028-0.062,0.6051-0.2114 c0.8242-1.2068,2.0561-0.6655,3.1211-0.6966c0.2102-0.0061,1.2483,0.3484,0.4304,1.1005c-0.019,0.0177,0.0963,0.2683,0.1866,0.2991 c0.1415,0.0482,0.3181,0.017,0.4737-0.0131c0.0661-0.0129,0.131-0.099,0.1717-0.1667c0.2352-0.3901,0.4629-0.7847,0.6932-1.1777 c0.6234,0.6926,1.1255-0.2618,1.7612-0.1274c0.7014,0.1481,1.691,0.3247,2.1375-0.0327c0.7149-0.572,1.0758,0.2271,1.6059,0.0801 c0.3013-0.0835,0.7615,0.103,0.9415-0.061c0.6458-0.5882,1.1875-0.6553,1.893-0.0812c0.1392,0.1132,0.6932-0.512,1.0049,0.0973 c0.6723-0.6597,1.3431-0.6793,2.0128,0.0037c0.2658-0.3435,0.5394-0.5718,0.8634-0.0586c1.4547-0.8638,3.1234-0.0127,4.5815-0.5618 c0.4778-0.1798,0.7081-0.4219,1.2233-0.0496c0.2889,0.2091,0.859,0.0761,1.2931,0.0227c0.3711-0.0455,0.7929-0.3754,1.0811-0.2715 c1.2744,0.4593,2.5011-0.1571,3.7599-0.0575c1.4562,0.1152,2.9281,0.0267,4.3937,0.0267c1.3834,0,2.7687,0.0371,4.1503-0.0158 c0.6824-0.026,1.429,0.2959,2.0524-0.3866c0.1642-0.1797,0.8493-0.1353,1.0938,0.0594c0.6077,0.4836,1.0792,0.3912,1.7052,0.0524 c0.3834-0.2075,0.915-0.1412,1.3797-0.1978h13.759c0.1307-0.0773,0.2613-0.1545,0.3923-0.2318 c-0.1191-0.0855-0.2344-0.2376-0.358-0.2449c-0.4868-0.0287-0.9762-0.0118-1.4644-0.0118c-6.2677,0-12.5361,0.0466-18.8023-0.0508 c-0.9291-0.0144-1.7582,0.5044-2.7971,0.1228c-0.9325-0.3425-2.0901-0.072-3.148-0.072c-0.9769,0-1.9535,0-2.9304,0 c-1.0583,0-2.1162,0-3.1745,0c-1.0583,0-2.1177,0.0319-3.1742-0.0116c-0.6857-0.0281-1.4812,0.3029-1.9968-0.4747 c-0.5779,0.6149-1.0956,0.5744-1.874,0.18c-0.4662-0.2363-1.2696,0.3098-1.9128,0.2841c-2.7837-0.1112-5.5685-0.252-8.3417-0.5058 c-0.6223-0.0569-1.199-0.6118-1.7967-0.9375c0-0.1629,0-0.3257,0-0.4886c0.2927,0.0484,0.604,0.0486,0.8746,0.1533 c1.2812,0.495,2.0266,0.4691,3.4571-0.7892c-0.0045,0.0063-0.2139,0.321-0.4237,0.6358c0.2486,0.1586,0.6148,0.5059,0.7223,0.4388 c0.2695-0.1686,0.5334-0.5057,0.5846-0.8113c0.0392-0.2324-0.252-0.52-0.8832-0.2634c-0.7216,0.5822-1.2662,0.5629-1.2793,0.4696 c-0.1348-0.9679-0.237-1.7763-1.2311-0.4629c-0.0941,0.1243-0.5282,0.1812-0.6189,0.0882 c-0.9347-0.9559-0.9224,0.1059-1.2024,0.5409c-0.769,0.1042-0.2789-1.2816-1.2603-1.0576c-0.1784,0.0407-0.4954-0.5038-0.859-0.0151 c-0.2639,0.3546-0.5753,0.8171-1.0557,0.1497c-0.0429-0.0595-0.3453,0.5908-0.8623,0.1282 c-0.4935-0.4418-1.3304,0.4618-1.9378-0.1846c-0.1415-0.1508-0.3576-0.3311-0.3584-0.4985 c-0.003-0.9749,0.8787-1.6364,1.8146-1.2834c0.3042,0.1149,0.455,0.3584,0.7048-0.0157c0.2083-0.3123,1.0154,0.9094,0.8967-0.3652 c-0.0903-0.9707,0.7126-1.4216,1.4066-1.7146c1.3625-0.575,1.5555-0.6229,1.9994-1.4542c0.3852-0.7217,0.3901-0.7258,0.9721-0.0372 c0.0922,0.1092,0.0784,0.3387,0.1818,0.4026c1.317,0.8164,1.3054,0.7964,0.2378,1.8829c-0.3834,0.3897-0.7007,0.7336-1.2143,0.2216 c-0.0594,0.1379-0.1967,0.3032-0.1601,0.408c0.0646,0.1866,0.2098,0.4483,0.3651,0.4834c0.8418,0.1894,1.3939-0.4682,2.0498-0.8041 c0.1448-0.0741,0.1575-0.4062,0.2311-0.6194c0.0892,0.191,0.1624,0.3922,0.2721,0.5707c0.1213,0.1973,0.249,0.4088,0.4259,0.5476 c0.1239,0.0972,0.3356,0.0831,0.5077,0.1186c0.0131-0.1571,0.0709-0.3285,0.0265-0.4673c-0.044-0.1387-0.2527-0.2327-0.2792-0.3678 c-0.0523-0.2689-0.0287-0.5524-0.0366-0.8299c0.1725,0.1164,0.3449,0.2327,0.5174,0.349c0.0997-0.1654,0.271-0.3244,0.2863-0.4972 c0.0493-0.5598,0.0366-1.1249,0.0698-1.6867c0.0015-0.0266,0.3005-0.0851,0.3166-0.0537c0.1385,0.2653,0.243,0.548,0.3576,0.8255 c0.23-0.0958,0.4595-0.1917,0.6895-0.2876c0.0381,1.1038,0.5357,0.6979,0.8399,0.1944c0.3931-0.6512,0.7809,0.1986,1.0374-0.0616 c0.2523-0.2559,0.3046-0.7066,0.5529-0.9699c0.1852-0.1967,0.5353-0.2961,0.8242-0.3279c1.5563-0.1715,3.1902,0.3941,4.6711-0.4993 c0.5965,0.7869,1.1878-0.0668,1.7903-0.0147c0.7257,0.0627,1.4928-0.1186,2.1853,0.0453c1.1106,0.2629,2.1745-0.6711,3.2585-0.0305 c1.0635-0.7817,2.2894-0.442,3.4537-0.4797c1.2173-0.0394,2.4402,0.0424,3.6546-0.0308c0.5902-0.0355,1.2039-0.2263,1.7388-0.4872 c0.5958-0.2906,0.9135,0.7325,1.6347,0.1656c0.4088-0.3214,1.2367-0.0854,1.8676-0.1665c0.1452-0.0187,0.3554-0.3095,0.3539-0.4732 c-0.0019-0.1619-0.2251-0.4514-0.3655-0.4605c-0.7283-0.0469-1.4615-0.0105-2.192-0.034c-0.1083-0.0035-0.2113-0.1699-0.3166-0.2611 c0.115-0.1149,0.2299-0.2299,0.3449-0.3447c0.1146-0.1149,0.2411-0.3376,0.3427-0.3267c0.5588,0.0588,1.1117,0.1749,1.6668,0.2712 c-0.053-0.839,0.5129-0.7485,1.0889-0.8173c0.5872-0.0702,1.18-0.2867,1.706-0.5624c0.1698-0.0891,0.1911-0.5708,0.1743-0.8668 c-0.0097-0.1727-0.2221-0.4698-0.3561-0.4773c-0.8101-0.0449-1.722,0.2092-2.4104-0.0832 c-0.7892-0.3354-1.3861,0.0196-2.0561,0.0838c-0.3513,0.0336-0.6798,0.3029-1.0184,0.4657 c-0.1292-0.1628-0.2845-0.4814-0.3826-0.4646c-1.0736,0.1825-2.2555-0.4985-3.251,0.4024c-0.1079,0.0972-0.5025,0.0446-0.6327-0.078 c-0.7791-0.7323-1.7104-0.1676-2.5466-0.3483c-0.5573,0.9534-1.3868-0.4735-2.1942,0.3069 c-0.4726,0.4566-1.6854,0.1604-2.566,0.1777c-0.8941,0.0175-1.7888,0.0039-2.6836,0.0039c-0.813,0-1.6265,0-2.4395,0 c-0.8948,0-1.7892,0-2.6836,0c-0.8948,0-1.7892,0-2.6836,0c-0.1628,0-0.3595,0.0577-0.4797-0.0138 c-0.1691-0.1006-0.3834-0.2934-0.389-0.4533c-0.0056-0.166,0.1837-0.4476,0.3408-0.4928c1.2386-0.3565,2.4798-0.7197,3.7423-0.9724 c0.6253-0.1251,1.2983-0.0514,1.9467-0.0136c0.6772,0.0395,1.2793-0.01,1.6951-0.6542c0.0702-0.1082,0.3307-0.0932,0.5032-0.1352 c0.168,1.4836,0.8078,0.5454,1.3935,0.318c0.3531-0.1372,0.8033-0.0174,1.2099-0.0268c0.884-0.0205,1.8501,0.1641,2.6291-0.1346 c0.8127-0.3116,1.3513,0.3838,2.0976,0.1639c1.0986-0.3238,2.2988-0.3356,3.3627-0.7306c0.5222-0.194,0.8037-0.3712,1.2237,0.0633 c0.0381,0.0397,0.5331-0.2137,0.6454-0.4227c0.2983-0.5559-0.2393-0.3332-0.4483-0.4005c-0.3991-0.1285-1.0486-0.4537-1.1632-0.3221 c-0.4954,0.5694-0.6253-0.1051-0.9153-0.1495c-0.4767-0.073-1.0359-0.1691-1.4499,0.0058 c-1.9314,0.8155-3.9398,0.3322-5.9082,0.4556c-0.7291,0.0456-1.4689-0.0482-2.1935,0.0256 c-0.5454,0.0554-1.0691,0.2966-1.6112,0.4183c-0.5607,0.1259-1.118,0.1591-1.4924-0.4181 c-0.3166,0.4266-0.8123,0.3642-1.2386,0.5137c-0.6174,0.2166-0.9183-0.7772-1.6466-0.2005 c-0.408,0.3231-1.2308,0.1359-1.8672,0.1531c-0.6503,0.0175-1.3013,0.0039-1.9516,0.0039c-0.6507,0-1.4958-0.2569-1.9094,0.0561 c-0.747,0.5652-1.2293-0.1455-1.8355-0.0733c-0.6417,0.0763-1.3013-0.0175-1.9494,0.0246 c-1.1624,0.0758-2.3346-0.2273-3.4851,0.4333c-0.5562,0.3195-1.3823,0.0524-1.9658-0.4408c0.1628-0.3395,0.3901-0.6639,0.473-1.0219 c0.118-0.5086,0.2277-0.3236,0.5753-0.1695c0.6159,0.2736,1.308,0.3783,1.9714,0.5406c0.106,0.026,0.3132,0.0167,0.3315-0.0307 c0.3938-1.031,1.5891-0.5376,2.2234-1.1777c0.2762-0.279,0.6645-0.1404,0.8011,0.4318c0.1945,0.8173,0.8903,0.5529,1.314,0.2948 c0.772-0.4705,1.6283-0.7822,2.186-0.843c0.8403-0.0916,1.7847,0.4231,2.5235-0.3902c0.0806-0.0888,0.2986-0.0832,0.4498-0.0727 c2.2353,0.155,4.3754-0.7681,6.6376-0.5344c0.8829,0.0913,1.8127-0.2908,2.7232-0.445c0.925-0.1567,1.8807,0.2561,2.8184-0.2874 c0.3121-0.1807,0.9303,0.2014,1.4159,0.2809c2.0837,0.341,4.0518-0.6287,6.1146-0.5734c0.0538,0.0015,0.1146-0.2602,0.1721-0.3991 c0.1866,0.1051,0.3621,0.2454,0.5618,0.3088c0.6716,0.2136,1.3685,0.4962,2.587-0.3053c0.1359,0.0003,0.1788-0.0035,0.0063-0.0035 c0.9493,0,1.1942,0.0364,1.4223-0.0096c0.2606-0.0526,0.5062-0.1787,0.7582-0.2729c-0.2087-0.0687-0.4159-0.1879-0.6271-0.1966 c-0.632-0.0263-1.2662-0.0228-1.8986,0.002c-0.1251,0.0049-0.2449,0.1559-0.367,0.2398c0.059,0.0592,0.1161,0.1534,0.1758,0.1995 c-0.9441-0.1023-2.4485-0.3767-2.4485-0.3767c-0.0567,0.1382-0.1135,0.2763-0.1702,0.4145 c-1.3999-0.749-2.8636-0.5919-4.3366-0.3046c-0.5245,0.1024-1.2606,0.4703-1.5339,0.254c-0.7884-0.6237-1.3913-0.199-2.0636,0.0524 c-0.3505,0.1309-0.8455,0.5036-1.0154,0.3873c-1.305-0.8939-2.8886,0.1314-4.0831-0.5691c-0.7738-0.454-1.0557,0.6326-1.6231,0.1799 c-0.171-0.2524-0.3711-0.4907-0.5036-0.7619c-0.1038-0.2126-0.9191-0.4183-0.022-0.7145c0.8496-0.2805,1.3767-1.3454,2.5183-0.9988 c0.1792,0.0545,0.6816-0.2997,0.7067-0.5046c0.1247-1.0298,0.8283-0.9761,1.5413-0.9192c0.2154,0.0172,0.4218,0.1452,0.6324,0.2225 c-0.199,0.0856-0.3912,0.1945-0.598,0.249c-0.1516,0.0398-0.3628-0.053-0.4733,0.0221c-0.162,0.1103-0.3561,0.3193-0.3539,0.4835 c0.0022,0.1615,0.2217,0.4463,0.3655,0.4591c1.102,0.0985,2.1304-0.0099,3.0849-0.7385c1.3581-1.0367,1.7321-0.9835,2.815-0.0314 c1.4245,1.252,1.8097,1.3188,4.2037,0.8108c0.1993-0.0423,0.4341,0.0978,0.6551,0.1377c0.6962,0.1258,1.3469-0.2229,1.5451-0.8395 c0.0694-0.2161,0.0272-0.5937,0.1467-0.6465c0.5267-0.2325,1.0938-0.3734,1.6466-0.5474c0.0549,0.4621,0.1101,0.9242,0.165,1.3863 c-0.3703,0.0735-0.9355-0.2423-0.9769,0.5975c0,0.0363,0-0.0364,0-0.109c-0.1265,0.0452-0.2684,0.0702-0.3703,0.1476 c-0.0306,0.0231,0.0508,0.1932,0.0806,0.2958c0.0967-0.0752,0.193-0.1503,0.2897-0.3345c0.3703-0.1825,0.9351,0.1334,0.9769-0.5975 c0.2434,0,0.4868,0,0.7302,0c-0.0078-0.1715,0.0467-0.3839-0.0343-0.5075c-0.3315-0.5053-0.3979-0.9275,0.3558-0.9465 c1.5406-0.0388,3.0834,0.0045,4.6248-0.0205c0.5241-0.0084,0.7403,0.181,0.6745,0.6951c0.1609,0.0173,0.455,0.0755,0.4644,0.0458 c0.4289-1.3914,1.5768-1.2145,2.6332-1.2185c1.7851-0.0069,3.5706,0.008,5.3553-0.0248c0.1165-0.0022,0.3248-0.3345,0.3218-0.5103 c-0.0093-0.5249-0.2109-0.3761-0.5469-0.1686c-0.19,0.1175-0.7193-0.1824-0.8149-0.0652c-0.4353,0.5338-0.5909-0.1937-0.8888-0.1384 c-2.8834,0.5348-2.883,0.5354-5.2471-0.0158c-1.9322,0.8159-4.0395-0.9825-5.9623,0.4062 c-0.2665,0.1926-0.8358-0.0871-1.1897,0.0485c-0.9444,0.3623-1.8482-1.2078-2.7684-0.022c-1.0549,0-2.1099,0-3.1648,0 s-2.1203,0.0918-3.1618-0.0273c-0.9347-0.1069-1.7616,0.4508-2.787,0.0965c-0.9426-0.3255-2.086-0.0604-3.1409-0.0722 c-0.6969-0.0079-1.4443,0.1603-1.9886-0.4855c-0.8388,0.8833-1.678-0.0978-2.5168,0c0.526-0.3042,2.7986-0.9734,3.3578-0.9754 c1.3017-0.0049,2.6045,0.0214,3.9043-0.0269c0.1911-0.0071,0.3699-0.3522,0.5543-0.541c-0.2363-0.1369-0.4916-0.4141-0.7052-0.3848 c-0.6745,0.0925-1.3413,0.2736-1.996,0.4696c-0.7059,0.2113-1.2207-0.5209-1.7418-0.433c-0.5719,0.0965-1.1046,0.4142-1.7582,0.4638 c-0.8414,0.064-1.5223-0.2568-2.2349-0.5426c-0.1609-0.0647-0.3382-0.3388-0.3289-0.5068c0.0086-0.1581,0.2516-0.4302,0.3946-0.4323 c0.6327-0.0088,1.3472-0.1086,1.8818,0.1432c0.8127,0.3824,1.4256,0.8395,1.7403-0.4784c0.022-0.093,1.2061-0.035,1.211,0.0127 c0.0866,0.9272,0.4424,0.7014,0.9568,0.3138c0.2706-0.204,0.9105-0.4188,0.9295-0.3834c0.8369,1.5483,1.5077,0.0574,2.1886-0.1504 c0.4166-0.1271,0.7365-0.5708,1.0997-0.8724c0.1725,0.2871,0.3449,0.5741,0.5174,0.8612c0.0959-0.1754,0.1781-0.3603,0.2904-0.5246 c0.3684-0.5389,0.7164-0.5878,0.9418-0.0296c0.1822,0.4505,0.1336,0.7938,0.6469,0.2479c0.2695-0.2862,1.0564-0.0409,0.8511-0.8313 c0.4312-0.0709,0.8631-0.1802,1.2924-0.1706c0.059,0.0013,0.1075,0.4726,0.1594,0.8675c-0.1228,0.0422-0.2579,0.0686-0.3565,0.1433 c-0.0302,0.0231,0.0508,0.193,0.081,0.2957c0.0967-0.0751,0.193-0.1503,0.2893-0.3345c0.6522,0.0539,1.3506,0.4471,1.946,0.3279 c0.996-0.1994,2.03-0.5785,2.8557-1.1566c0.8298-0.5809,1.5525-0.4047,2.3813-0.2725c0.4913,0.0783,1.0068,0.7964,1.5115,0.0153 c0.6663,0.2389,1.5802-0.5624,2.0531,0.4885c0.2677-0.1225,3.5195-0.9624,3.7423-0.9785c1.5641-0.1132,3.1868,0.3333,4.677-0.4871 c1.4062,0.7011,2.8576-0.4047,4.3851,0.213c0.8885,0.3593,2.1651-0.2277,3.263-0.414c0.2135-0.0362,0.4106-0.1824,0.61-0.2886 c0.7022-0.3742,1.2173,1.1007,2.1244,0.1253c0.3464-0.3724,1.3879-0.0634,2.1054-0.1347c0.7615-0.0758,1.6298,0.3472,2.2555-0.4364 c0.7466,0.6265,1.4484,0.5743,2.3563,0.1844c0.4588-0.1969,1.2352,0.0287,1.868-0.0149c0.8661-0.0597,1.7291-0.1686,2.5955-0.2033 c0.8929-0.0358,1.7885-0.0079,2.6833-0.0079c0.8944,0,1.803-0.0979,2.6792,0.0292c0.7798,0.1131,1.5234-0.7286,2.2831-0.0292 c0.6238-0.4531,1.5518-0.5242,2.0546-0.4005c1.2326,0.3035,27.4508-0.2146,28.6271-0.1134c1.2916,0.1111,2.6,0.0253,3.9013,0.0253 c0.9758,0,1.9523,0.0202,2.9267-0.0145c0.2367-0.0083,0.467-0.1966,0.7003-0.3023c-0.3154-0.2201-0.6077-0.5442-0.9549-0.6215 c-0.2109-0.047-0.5193,0.4444-0.763,0.4254c-2.3824-0.1857-29.9153,0.4813-32.2615-0.3701c-0.1422-0.0517-0.3266-0.1318-0.445-0.084 c-2.5664,1.0376-5.2377,0.3144-7.8538,0.4481c-2.6765,0.1369-5.3658,0.0304-8.049,0.0304c-0.732,0-1.5089,0.1547-2.1834-0.042 c-0.7257-0.2117-1.242,0.6727-1.8758,0.2247c-0.7761-0.5484-1.3099,0.2854-1.9184,0.2578c-0.8074-0.037-1.6011-0.4091-2.3966-0.6518 c-0.2135-0.0653-0.4778-0.3165-0.6044-0.2533c-0.4483,0.2238-1.0661,0.8771-1.2252,0.7718 c-0.5379-0.3564-1.0785-0.5092-1.5126-0.134c-0.6716,0.5797-1.4189,0.3524-2.0703,0.2705 c-0.8534-0.1075-1.4719-0.9486-2.5955-0.5092c-0.8466,0.3309-1.9262,0.0655-2.902,0.0655c-0.6507,0-1.3017,0.0125-1.9505-0.0189 c-0.0672-0.0033-0.2068-0.3624-0.1684-0.3975c0.405-0.3684,0.8395-0.7043,1.2659-1.0492c0.0538,0.1349,0.1071,0.2701,0.1609,0.405 c0.1094-0.1349,0.2184-0.2701,0.3278-0.405c0.6088,0.0269,1.2897-0.1992,1.7097,0.4885c0.3979-0.6514,1.0318-0.4836,1.8053-0.366 c-0.0317,0.0317-0.0635,0.0636-0.0956,0.0954c0.0967,0.0752,0.1881,0.1594,0.2942,0.2169c0.0183,0.0098,0.0982-0.0941-0.0698-0.2927 c0.1478,0.0478,0.0709-0.0472-0.0063-0.142c-0.0157,0.0157-0.0317,0.0315-0.0474,0.0472c-0.3673-0.6536-0.6869-1.0493-1.3024-1.0143 c-0.7649,0.0434-1.5272,0.1508-2.2827,0.277c-0.0388,0.0065-0.0049,0.4501-0.0049,0.6901c-0.1631,0-0.3259,0-0.4886,0 c-0.3057-0.3257-0.5667-0.843-0.9284-0.9275c-0.4312-0.1007-1.0904,0.4095-1.3984,0.2277 c-0.5618-0.3319-1.0116-0.4313-1.5208-0.0832c-0.8929,0.6103-2.0184,0.5061-2.777,0.2115c-1.1703-0.4546-2.326-0.2475-3.4582-0.4931 c-0.0732-0.0159-0.1038-0.2096-0.0556-0.4983c0.0325,0.0324,0.065,0.0649,0.0974,0.0973c0.075-0.0965,0.1594-0.188,0.2169-0.2941 c0.0097-0.0182-0.0941-0.0981-0.2927,0.0697c0.0478-0.1477-0.0474-0.0706-0.1422,0.0065c0.0183,0.018,0.0362,0.036,0.0541,0.0541 c-0.6503,0.4455-1.1471,0.92-1.7702,0.618c-0.4114-0.1994-0.1448-1.1711-1.0034-0.9754c-0.5663-1.7342-1.781-1.2274-3.0334-0.9736 c-1.1486,0.2329-0.1482,0.5377-0.115,0.8172c0.028,0.2384-0.0175,0.4859,0.0146,0.7234c0.019,0.1398,0.1262,0.2677,0.1937,0.4008 c0.0952-0.1744,0.2285-0.3391,0.2762-0.5257c0.0575-0.2245,0.0037-0.4802,0.0758-0.6969c0.0328-0.0988,0.2445-0.1661,0.386-0.1966 c1.2005-0.2578-0.6406,1.1527,0.557,1.0281c0.2143-0.0222,0.9433-1.4211,0.9377,0.1381c-0.0011,0.4074,0.1209,1.1671-0.6406,0.3866 c-0.0291-0.0295-0.1209-0.0282-0.1657-0.006c-0.5062,0.2505-1.0766,0.788-1.4939,0.6872c-0.4461-0.1075-0.7473-0.8157-1.1121-1.2616 c0.2042-0.394-0.9295-0.6505-0.1139-1.1074c-0.3748-0.2768-0.7492-0.5535-1.124-0.8302c-0.6917,1.1679-1.8221-0.6848-2.5306,0.3675 c-0.5219-0.9038-0.9642,0.6445-1.323,0.0886c-0.5305-0.8222-0.8899,0.0876-1.3304,0.0245 c-0.3942-0.0566-0.8996,0.1071-1.1811-0.0839c-1.046-0.71-2.0759-0.4896-3.1559-0.1809c-0.1937,0.0554-0.461-0.1101-0.6835-0.2001 c-0.2419-0.0976-0.4711-0.2261-0.7059-0.3412c0.1725-0.1727,0.3207-0.3882,0.5249-0.5054c0.19-0.1088,0.4416-0.1066,0.663-0.1642 c0.2191-0.0573,0.4349-0.1282,0.6521-0.1932c-0.252-0.0979-0.4965-0.2423-0.7578-0.2856c-1.0967-0.182-2.1935-0.4075-3.2992-0.4774 c-1.2972-0.082-2.6067,0.0368-3.9043-0.0406c-0.7533-0.045-1.4902-0.3258-2.2413-0.461c-0.7537-0.1356-1.5649,0.2556-2.2771-0.4558 c-0.2445-0.2442-0.9482,0.0234-1.4238-0.0545c-0.5943-0.0973-1.1651-0.3309-1.7549-0.4668 c-0.5715-0.1317-0.3013-0.3031-0.0986-0.5836c0.3998-0.5543,0.2206-0.8499-0.4692-0.9121 c-0.1258-0.0114-0.3203-0.3462-0.3057-0.5168c0.0131-0.1559,0.2718-0.4213,0.4125-0.4151c0.9545,0.041,1.7179-0.8239,2.7359-0.5357 c0.2281,0.0646,0.5592-0.1829,0.8239-0.3223c0.1377-0.0724,0.2613-0.2087,0.3322-0.3466c0.0202-0.0393-0.1609-0.2628-0.2587-0.2693 c-0.6417-0.0424-1.4745,0.1887-1.8784-0.1316c-0.4274-0.3386-0.5641-0.7912-1.3121-0.9627 c-0.6604-0.1515-1.3196-0.3591-2.0192-0.3852c-0.5446-0.0203-1.0538,0.0599-1.5514-0.4233 c-0.4009-0.3894-1.2095-0.3727-1.5805-0.7738c-0.1814-0.1962,0.249-0.9271,0.3524-1.4264c0.1392-0.6724-0.3244-1.5033,0.483-1.9944 c0.7974-0.4849,1.6108-0.9219,2.6187-0.7697c0.377,0.0569,0.8015,0.0051,1.1662-0.1138c0.5502-0.1793,0.7205-0.8564,0.3748-1.3326 c-0.1415-0.1951-0.3849-0.3228-0.5043-0.5265c-0.3576-0.6096-0.6772-1.2415-1.0113-1.8646c0.9586-0.453,1.588-1.6452,2.7848-1.4951 c1.7814,0.2236,3.4933-0.2718,5.1235-0.6727c1.6003-0.3935,3.3481-0.3583,4.8387-1.2576c0.2994-0.1807,0.8358,0.0644,1.1837-0.079 c0.3565-0.1469,0.6167-0.5294,0.9187-0.8088c-0.4349-0.3379-0.713-0.0615-1.0146,0.2315c-0.0941,0.0916-0.2867,0.1123-0.4345,0.1135 c-2.0606,0.0172-4.129-0.117-6.1505,0.4774c-0.3744,0.1101-0.8108,0.0355-1.2151,0.0037c-0.1202-0.0095-0.2288-0.1633-0.3427-0.251 c0.1314-0.0752,0.271-0.1393,0.3935-0.2272c0.9116-0.6541,1.9624-0.5292,2.9718-0.4655c0.6596,0.0415,1.2539-0.1802,1.3965-0.698 c0.3307-1.2027,1.5324-0.7024,2.1606-1.2633c0.0336-0.0298,0.2643,0.1256,0.3744,0.2261c0.1725,0.1572,0.3207,0.3412,0.4793,0.5138 c-0.1318,0.0743-0.2565,0.1801-0.3979,0.2146c-0.1538,0.0373-0.3274-0.0147-0.4857,0.0127 c-0.4976,0.0865-0.9922,0.1919-1.488,0.2901c0.4618,0.0648,0.9232,0.183,1.3846,0.1819c0.7279-0.0018,1.7601,0.3557,1.5305-1.0812 c-0.0134-0.0842,0.4498-0.3195,0.7104-0.3597c1.3073-0.2016,2.6276-0.3252,3.9252-0.5709c0.224-0.0424,0.3614-0.5407,0.5387-0.8284 c-0.2848-0.0995-0.3024-0.7675-0.8907-0.3065c-0.2796,0.219-0.8784,0.1504-1.2845,0.0386c-0.2087-0.0576,0.62-0.9328,1.1591-0.7445 c1.1587,0.4045,2.1793-1.3258,3.3041-0.1193c0.8631-0.9323,2.1745-0.9569,3.1835-1.5877c0.0836-0.0524,0.1157-0.3439,0.0493-0.4369 c-0.0698-0.0976-0.3083-0.1583-0.4364-0.118c-1.9762,0.6214-4.0003,0.0898-5.9944,0.2527c-0.1221,0.0099-0.2579-0.1494-0.3871-0.23 c0.1269-0.0823,0.246-0.1819,0.3819-0.2439c0.71-0.3237,1.4088-0.5879,2.2402-0.5153c0.8593,0.0751,1.4114-0.2968,2.3887-0.7948 c0.6286-0.3202,1.5298-0.1525,1.9243-1.2546c0.0399,0.0398,0.0795,0.0795,0.1191,0.1193c0.0754-0.0965,0.1598-0.1881,0.2173-0.2942 c0.0097-0.0181-0.0941-0.098-0.2927,0.0698c0.0399-0.1243-0.0217-0.0882-0.0986-0.0281c-1.8333-0.5888-3.5404-0.4199-5.1978,0.3208 c-0.3617,0.1615-0.5051,0.4468-0.8907,0.028c-0.3083-0.335-0.2426-0.4913,0.0575-0.7039c-0.1896-0.1231-0.3666-0.2763-0.5719-0.3611 c-0.2076-0.0856-0.4435-0.1032-0.6667-0.1506c0.1613-0.2291,0.2729-0.5359,0.4913-0.6746c1.4253-0.9055,3.0554-1.3322,4.677-1.574 c1.1199-0.167,2.1457-0.3081,2.9259-1.1739c0.4159-0.4615,0.7798-0.4971,1.1942-0.0189c0.0131,0.0151,0.3595-0.1582,0.3628-0.2506 c0.0332-0.8976,1.059-0.4984,1.339-1.0508c0.2105,0.1608,0.5521,0.2876,0.6047,0.4896c0.1053,0.4039,0.19,0.5924,0.5342,0.2182 c0.5805-0.6314,1.1699-1.1016,2.0139-0.3991c0.0679,0.0565,0.3229,0.0161,0.3236,0.0075c0.1292-1.6287,1.977-0.1299,2.3503-1.2933 c1.4715-0.1628,2.9449-0.3091,4.4135-0.4941c1.0699-0.1346,2.1364-0.3033,3.1973-0.4976c0.2038-0.0373,0.4226-0.2299,0.5473-0.4108 c0.2113-0.3063,0.3535-0.6605,0.5249-0.9945c0.171,0.3036,0.293,0.819,0.5226,0.8722c0.7645,0.1774,1.5511,0.1107,2.2095-0.4293 c0.0579,0.1389,0.1497,0.4032,0.1676,0.3983c0.4174-0.1152,0.8481-0.2171,1.2319-0.4094c0.4442-0.2224,0.4853,0.6633,1.1759,0.2425 c0.6611-0.4025,1.6974-0.1889,2.5687-0.246c0.0284-1.2464,1.3036-1.1893,1.8512-1.2627c1.8168-0.2436,3.6844-0.1235,5.5319-0.0976 c0.2094,0.003,0.2901,0.4913,0.7037,0.1412c1.0475-0.8867,2.3499-0.7441,3.6005-0.7135c0.7947,0.0194,1.5175-0.0731,2.2558-0.4633 c0.5924-0.3132,1.4085,0.2775,2.0457-0.3756c0.501-0.5138,0.9459,0.4341,1.1714,0.3044c1.9736-1.1356,4.275,0.2498,6.2408-0.8691 c0.3091-0.1758,0.7877-0.0629,1.1882-0.0669c0.7324-0.0073,1.4723,0.0654,2.1954-0.0157 c1.6421-0.1841,28.3785,0.2915,30.0676-0.3809c1.4111-0.5616,3.073,0.0595,4.6718-0.4969c1.2337-0.4295,2.7527-0.2167,4.1149-0.047 c1.2464,0.1552,2.2846-0.4905,3.4623-0.5554c1.1561-0.0637,2.3753,0.4245,3.4881-0.4245c0.3087-0.2354,0.9493-0.0342,1.4372-0.036 c5.7137-0.0207,11.4054-0.8193,17.1288-0.4883c2.5773-0.816,5.2844-0.0989,7.8385-0.568c2.6411-0.4853,32.5742,0.0136,35.1209-0.483 c3.5322-0.6886,7.0408-0.2877,10.5535-0.3398c0.6764-0.01,1.326-0.9724,2.0173-0.118c0.6473-0.8401,1.398,0.6096,2.0016-0.0678 c0.613-0.6882,1.3652-0.2992,2.0487-0.3606c0.8071-0.0725,1.6257-0.017,2.4395-0.017c0.8138,0,1.6668,0.1609,2.4343-0.0273 c3.7363-0.916,7.5208-0.2976,11.2781-0.4341c1.2662-0.046,2.3865-0.7219,3.7068-0.5515c1.2804,0.1652,2.6855,0.3285,3.883-0.0253 c2.4638-0.7279,4.9372-0.4681,7.3805-0.372c3.0614,0.1205,6.0373-0.5936,9.076-0.553c3.0913,0.0413,6.1881,0.1054,9.2727-0.0462 c0.9974-0.0491,2.0457-0.16,3.0692-0.3761c1.1684-0.2467,2.429-0.0571,3.6494-0.0571c1.2207,0,2.4735,0.1811,3.6561-0.0311 c5.3702-0.9639,49.9491-0.2059,55.3298-0.4673c0.5614-0.0273,1.2125-0.4196,1.6496-0.235c0.5704,0.2408,0.9676,0.3373,1.5283,0.0482 c0.423-0.218,0.9441,0.0181,1.4424-0.2609c0.6062-0.3391,1.3405,0.7255,2.0192-0.0309c0.9228,0.6473,1.8206-0.1942,2.7751-0.0415 c1.1109,0.1777,2.2719,0.0415,3.4108,0.0415c1.0579,0,2.1155,0,3.1734,0c1.0576,0,2.1192,0.0511,3.1719-0.022 c0.5107-0.0356,1.0004-0.4101,1.5092-0.4355c0.4774-0.0241,1.2431,0.4618,1.4036,0.2859c0.6495-0.7102,0.8407,0.3711,1.4204,0.2365 c0.8504-0.1975,1.7358-0.4241,2.6873-0.3428c0.6589,0.0563,1.4137,0.5571,1.9106,0.2304c0.7955-0.5234,1.3887-0.2603,2.0673,0.0475 c1.3909-0.9604,2.9554-0.3706,4.437-0.4676c1.4585-0.0956,2.9729-0.2406,4.3784,0.0476c1.1546,0.2367,2.1793-0.1752,3.2734-0.1187 c0.5413,0.028,1.0504-0.6014,1.7508-0.4513c0.7037,0.1509,1.6183,0.5127,2.1084,0.2221c1.0378-0.615,1.3297,0.6046,2.0505,0.548 c0.1557-0.0123,0.3222-0.0414,0.4569-0.1129c0.1281-0.0678,1.3398-0.464,1.4424-0.4286c0.7832,0.2697,1.4868,1.2513,2.4115,0.273 c1.0042,1.13,2.0076-0.0252,3.0125-0.0071c1.4137,0.0256,2.7329,0.6014,4.172,0.6236c0.5532,0.0085,1.0587,0.8495,1.1938-0.3716 c0.0063-0.0592,0.2807-0.1689,0.3218-0.1324c1.4984,1.3205,3.3171,0.7474,5.0168,0.8703c0.1437,0.0104,0.2822,0.1,0.4229,0.1528 c-0.0579,0.1151-0.0993,0.2427-0.1762,0.3432c-0.5129,0.6701-1.1356,1.2124-2.0349,0.9465 c-0.7962-0.2354-1.4458,0.4132-2.329,0.1473c-0.6398-0.1927-1.5238,0.4364-2.3025,0.6877 c-0.2131,0.0688-0.4942,0.2054-0.6514,0.1265c-1.5119-0.7597-2.9379-0.5318-4.5139-0.0345c-1.1098,0.3502-2.4197,0.0556-3.64,0.0752 c-0.3528,0.0056-0.869-0.1926-0.8758,0.5898c0,0.0364,0-0.0362,0-0.1088c-0.1269,0.045-0.2684,0.0702-0.3703,0.1476 c-0.0306,0.0231,0.0508,0.193,0.0807,0.2957c0.0967-0.075,0.193-0.1503,0.2897-0.3344c0.5674-0.566,0.9512,0.7331,1.6261,0.0535 c0.1262-0.1269,0.766,0.2283,1.161-0.062c0.4741,0.6772,1.1777,0.3587,1.7802,0.3726c0.9239,0.0213,1.7956-0.0477,2.7322-0.4107 c1.5141-0.5868,3.0528,0.4746,4.6244,0.4261c0.2692,0.8744,0.8627,1.0527,1.7366,1.0093c0.816-0.0406,1.5507,0.0341,1.7627-1.0031 c0.0097-0.0476,0.4554-0.0062,0.6977-0.0062c0.012,0.545-0.1396,1.2487,0.8325,0.8742c0.1792-0.0691,0.38-0.2769,0.5122-0.2353 c0.3546,0.1119,0.9571,0.3171,0.962,0.4984c0.0164,0.6331-0.5581,0.2199-0.8642,0.3236c-0.5715,0.1939-1.1576,0.3462-1.7287,0.542 c-0.3546,0.1217-0.6805,0.3516-1.0411,0.4257c-0.5551,0.114-0.6891-0.2419-0.6275-0.7199 c-0.6133,0.1254-1.2263,0.2508-1.8396,0.3761c0.1191,0.1193,0.2449,0.2327,0.3557,0.3591c0.1747,0.1993,0.339,0.4075,0.5077,0.6118 c-0.1706,0.1213-0.349,0.3567-0.5103,0.3451c-0.9956-0.0717-1.915,0.3843-2.946,0.2775c-1.1024-0.1143-2.2454,0.2383-3.366,0.2092 c-2.4761-0.0639-4.8764,0.8475-7.367,0.5193c-0.1262-0.0167-0.2721,0.1147-0.4091,0.1771c0.1646,0.1004,0.3352,0.296,0.4928,0.286 c1.1972-0.0758,2.3391,0.03,3.3672,0.7365c0.1123,0.0775,0.4173,0.0622,0.4972-0.0291c0.9015-1.0275,1.9934-1.0133,2.9759-0.3244 c0.6552,0.4595,1.2632-0.8847,1.7526,0.1207c0.934-0.0237,1.9042,0.1557,2.727-0.4886c0.8399,0.6825,1.5671,0.3972,2.5578,0.1091 c1.3499-0.3926,2.8979-0.1162,4.3601-0.0828c0.0926,0.0021,0.2173,0.3754,0.2475,0.5874c0.0146,0.1027-0.1557,0.2314-0.2419,0.3484 c-0.4472-0.9053-0.8605,0.079-1.3122,0.0331c-2.4761-0.2517-4.9163,0.1934-7.3625,0.4754 c-1.1565,0.1335-2.4593,0.0432-3.4134,0.5679c-0.8213,0.4516-1.2412-0.4057-1.8389-0.0844c-0.5469,0.2942-1.062,0.558-1.7519,0.5192 c-0.8365-0.047-1.7097-0.2258-2.5197,0.4089c-0.2397,0.1878-0.937-0.305-1.4271-0.3117c-0.4326-0.0059-0.8758,0.2117-1.3009,0.3666 c-0.3524,0.1285-0.6936,0.2945-1.0214,0.4772c-0.0929,0.0518-0.1381,0.2162-0.1683,0.3381 c-0.009,0.0358,0.1109,0.1515,0.1676,0.1487c1.0325-0.052,2.0666-0.0941,3.0961-0.1876c0.5323-0.0484,1.0538-0.261,1.5847-0.2801 c1.2188-0.0435,2.5067,0.2288,3.6426-0.081c1.1684-0.3186,2.1856,0.3145,3.2768,0.074c0.6712-0.1479,1.4156,0.2491,2.0334-0.4298 c0.3878-0.4262,1.0146,0.8367,1.5029-0.0534c0.4181,0.5168,0.8496,0.7415,1.3786,0.1129c0.0153-0.0186,0.5491,0.2529,0.6406,0.4727 c0.2341,0.564-0.3195,0.3941-0.5006,0.3614c-0.9067-0.1641-1.6974,0.2031-2.475,0.5327c-0.2822,0.1196-0.4375,0.5389-0.6507,0.8215 c0.3834,0.0287,0.8903,0.2266,1.1255,0.0539c0.6398-0.47,1.1602-0.9034,1.6907,0.0754c-0.4741,0.23-1.09,0.3418-1.398,0.7108 c-1.2461,1.4931-2.9804,1.5364-4.6696,1.7253c-1.7194,0.1922-3.4478,0.3065-5.1649,0.513 c-0.4315,0.0519-0.8377,0.3225-1.2509,0.5026c-0.0695,0.0302-0.1725,0.1538-0.1661,0.1622c0.0814,0.1058,0.1773,0.2789,0.274,0.2816 c0.813,0.0223,1.6272,0.0066,2.4406,0.0139c1.6048,0.0146,3.2652-0.2255,4.7573,0.4954c0.6092,0.2943,0.7697-0.8393,1.3999-0.1814 c0.3819,0.3988,0.9937,0.2699,1.4839-0.1781c0.1878-0.1717,0.6017-0.1448,0.9086-0.1304c7.4301,0.3497,14.827-0.7217,22.2553-0.5077 c2.6829,0.0773,16.3262,0.2853,19.0091,0.2107c2.9457-0.0818,5.8574-0.6428,8.8311-0.5026 c2.9225,0.1377,5.8585,0.0833,8.7852,0.0031c1.1311-0.0309,2.1517,0.2952,3.2182,0.5046c0.7455,0.1463,0.7761,0.5831,0.3184,0.9428 c-0.7936,0.6244-0.539,0.99,0.0403,1.5966c0.8982,0.9401,1.6048,2.0434,1.9176,3.3436c0.0892,0.3718,0.355,0.9219,0.2034,1.0939 c-0.7914,0.8985-0.4651,1.2695,0.5036,1.6161c0.2531,0.0905,0.3961,0.6258,0.4897,0.9832c0.0799,0.3045,0.037,0.6481,0.0127,0.9718 C467.1235,30.2724,467.514,31.3055,466.4878,31.9917z M399.0855,14.936c0.1086,0.0543,0.2132,0.1271,0.3281,0.1528 c0.0399,0.009,0.106-0.0985,0.1605-0.1528c-0.1064-0.0586-0.2124-0.1172-0.3147-0.1738 C399.1941,14.8275,399.14,14.8817,399.0855,14.936z M402.5052,7.6082c0.106,0.0587,0.2124,0.1173,0.3147,0.1739 c0.0653-0.0652,0.1194-0.1195,0.1736-0.1739c-0.1082-0.0542-0.2128-0.1271-0.3278-0.1527 C402.6255,7.4466,402.5594,7.554,402.5052,7.6082z M389.8202,4.3131c0.0232,0.2086,0.1463,0.4061,0.2277,0.6083 c0.0814-0.1234,0.1631-0.2468,0.283-0.4284c-0.0844-0.164-0.1837-0.3563-0.283-0.5487 C389.9666,4.0678,389.8079,4.1998,389.8202,4.3131z M387.361,4.1886c0.0545,0.0543,0.1206,0.1617,0.1605,0.1528 c0.115-0.0257,0.2195-0.0985,0.3282-0.1528c-0.0541-0.0543-0.1086-0.1085-0.174-0.1738 C387.5734,4.0714,387.4673,4.13,387.361,4.1886z M36.3261,36.9985c-0.0414-0.116-0.1116-0.2936-0.1956-0.3086 c-0.2359-0.0421-0.4845-0.0035-0.7272-0.0165c-1.3405-0.0722-2.6388,0.0752-3.9424,0.4559 c-0.6723,0.1964-1.5712,0.2724-2.1483-0.0244c-0.7615-0.3914-1.1994,0.9863-1.8784,0.1691 c-0.0093-0.0116-0.4312,0.3192-0.6604,0.4901c0.184,0.1256,0.3614,0.3459,0.5536,0.3593c0.6451,0.0455,1.2957,0.0174,1.9441,0.0174 c0.0011,0.0165,0.0019,0.033,0.0026,0.0496c0.8739-0.058,1.8911,0.144,2.5855-0.239c0.8963-0.4946,1.7399-0.0765,2.5563-0.3136 c0.5801-0.1684,1.0579-0.6917,1.75-0.4827C36.2033,37.1663,36.3373,37.0302,36.3261,36.9985z M37.3184,48.7144 c-0.0564-0.1025-0.115-0.2086-0.1736-0.3147c-0.0545,0.0542-0.1616,0.1203-0.1527,0.1605c0.0254,0.115,0.0982,0.2194,0.1527,0.3279 C37.1989,48.834,37.2534,48.7798,37.3184,48.7144z M37.3889,36.9194c-0.0541-0.0542-0.1202-0.1617-0.1605-0.1528 c-0.115,0.0257-0.2195,0.0985-0.3281,0.1528c0.0545,0.0543,0.1206,0.1617,0.1609,0.1528 C37.1761,37.0466,37.2803,36.9738,37.3889,36.9194z M39.7422,36.3417c-0.1359-0.0517-0.2945-0.1764-0.4035-0.142 c-0.4144,0.1307-0.8186,0.2996-1.2121,0.4859c-0.0851,0.0403-0.1083,0.2119-0.1598,0.3232 c0.1359,0.0519,0.2714,0.1038,0.5883,0.2249c0.2747-0.1486,0.6607-0.3418,1.0269-0.567 C39.669,36.613,39.6907,36.4528,39.7422,36.3417z M40.494,30.7425c0.1023-0.0566,0.2083-0.1152,0.3147-0.1738 c-0.0545-0.0543-0.1206-0.1617-0.1605-0.1528c-0.115,0.0256-0.2195,0.0986-0.3281,0.1528 C40.3742,30.6229,40.4287,30.6772,40.494,30.7425z M41.297,36.4309c-0.1083-0.0542-0.2128-0.1271-0.3278-0.1527 c-0.0403-0.009-0.1064,0.0985-0.1605,0.1527c0.106,0.0587,0.212,0.1174,0.3147,0.174 C41.1887,36.5395,41.2428,36.4852,41.297,36.4309z M44.2445,27.6219c-0.0037,0.058,0.193,0.1294,0.3726,0.2411 c0.0377-0.2648,0.0963-0.4826,0.0836-0.6963c-0.0041-0.0673-0.1986-0.1234-0.3057-0.1845 C44.3393,27.1951,44.2591,27.4063,44.2445,27.6219z M43.8156,48.2312c0.215,0.0562,0.4386,0.1785,0.6424,0.151 c0.2333-0.0314,0.4483-0.1958,0.6716-0.3026c-0.2087-0.0748-0.417-0.1496-0.7399-0.2656 C44.2128,47.9426,44.0142,48.0869,43.8156,48.2312z M47.5762,51.5035c-0.6182-0.0576-1.3114,0.0416-1.8363-0.2104 c-0.7391-0.355-1.314-0.4222-2.0378,0.0099c-0.3625,0.2167-0.8985,0.1429-1.3566,0.2005c0.3479,0.654,0.9415,0.2182,1.4141,0.3018 c0.3894,0.0688,0.8,0.014,1.2013,0.014c0.2408,0,0.4928,0.0458,0.7205-0.0088C46.3066,51.6605,47.0405,52.1788,47.5762,51.5035z M62.7089,52.9575c-0.7839-0.0775-1.5675-0.1548-2.4873-0.2456c-0.7959,0.4081-1.8456-0.3511-2.7202,0.4119 c0.9474,0.0536,1.899,0.1846,2.8412,0.1372C61.1303,53.2214,61.9948,53.6028,62.7089,52.9575z M65.1466,53.1287 c-0.0553-0.1108-0.0859-0.2852-0.171-0.3179c-0.1392-0.0534-0.3139-0.0145-0.4737-0.0145c-0.3195,0-0.6413-0.0195-0.9568,0.0148 c-0.0717,0.0077-0.1228,0.2023-0.1833,0.3109C63.9569,53.1242,64.5519,53.1264,65.1466,53.1287z M69.7288,52.7614 c-0.1803-0.1419-0.3628-0.3295-0.5838-0.4381c-0.0892-0.0437-0.2632,0.0859-0.3987,0.1367c0.215,0.2734,0.43,0.5468,0.6454,0.8202 C69.4716,53.1571,69.5519,53.0339,69.7288,52.7614z M72.9593,52.6357c-0.0254-0.115-0.0985-0.2193-0.1527-0.3279 c-0.0541,0.0543-0.1086,0.1086-0.1736,0.1739c0.0564,0.1024,0.115,0.2086,0.1736,0.3147 C72.8608,52.7421,72.9683,52.6759,72.9593,52.6357z M76.9592,55.4832c-0.0545-0.0543-0.1086-0.1086-0.174-0.1739 c-0.1023,0.0566-0.2087,0.1153-0.3147,0.1739c0.0545,0.0542,0.1206,0.1616,0.1605,0.1527 C76.746,55.6103,76.8506,55.5375,76.9592,55.4832z M86.6381,51.9798c0.009-0.0401-0.0985-0.1062-0.1527-0.1605 c-0.059,0.1062-0.1172,0.2123-0.174,0.3147c0.0653,0.0652,0.1195,0.1195,0.174,0.1738 C86.5395,52.1993,86.6123,52.0948,86.6381,51.9798z M50.5618,63.9578c-0.037-0.5124-0.2598-0.3782-0.5428-0.1283 c-0.0728,0.0643-0.3468-0.1431-0.4789-0.0938c-0.2957,0.1102-0.5599,0.3035-0.8373,0.4629 c0.2173,0.1073,0.4312,0.2219,0.6533,0.3178c0.0661,0.0286,0.1549,0.0044,0.2333,0.0044c0.2348,0,0.5062,0.072,0.694-0.0226 C50.4345,64.4219,50.5749,64.1381,50.5618,63.9578z M53.9988,64.2766c-0.0545-0.0543-0.1086-0.1086-0.174-0.174 c-0.1023,0.0566-0.2087,0.1153-0.3147,0.174c0.0541,0.0542,0.1206,0.1616,0.1605,0.1527 C53.7856,64.4037,53.8902,64.3309,53.9988,64.2766z M56.414,64.1557c-0.0859-0.2301-0.28-0.4427-0.4842-0.5884 c-0.0474-0.0339-0.4379,0.2278-0.4368,0.3517c0.0015,0.2297,0.1755,0.4581,0.3554,0.861 C56.1669,64.4394,56.4454,64.2395,56.414,64.1557z M63.5246,61.3591c-0.0814,0.095-0.1628,0.2036-0.2441,0.3395 c0,0.0363,0-0.0363,0-0.1089c-0.1265,0.0451-0.2684,0.0702-0.3703,0.1476c-0.0302,0.023,0.0508,0.1931,0.081,0.2957 c0.0967-0.0751,0.193-0.1503,0.2893-0.3344C63.3618,61.5628,63.4432,61.4541,63.5246,61.3591z M59.9805,68.4123 c0.1135,0.0124,0.2453-0.1461,0.3688-0.2276c-0.1926-0.0994-0.3852-0.1989-0.5487-0.2831 c-0.1814,0.1199-0.3046,0.2015-0.4282,0.2831C59.5744,68.2662,59.7722,68.3895,59.9805,68.4123z M61.2538,75.1392 c-0.0635-0.1338-0.115-0.3421-0.1691-0.3427c-1.6167-0.0183-3.2339-0.0226-4.8506-0.0031c-0.1191,0.0014-0.2385,0.1951-0.3535,0.304 c-0.1172,0.1112-0.2292,0.2281-0.3438,0.3424c0.1504,0.1057,0.2908,0.2315,0.4532,0.3131c0.4252,0.2132,0.8018,0.1609,1.3039,0.0893 c1.0478-0.1495,2.1349-1.3766,3.272-0.1658C60.5838,75.6954,61.0078,75.3326,61.2538,75.1392z M61.3076,70.9714 c-0.2647-0.0379-0.4827-0.0962-0.6962-0.0836c-0.0672,0.0039-0.1232,0.1983-0.1844,0.3055 c0.2128,0.0556,0.4241,0.1361,0.6395,0.1504C61.1247,71.3475,61.196,71.1507,61.3076,70.9714z M25.0846,88.2978 c-0.0258-0.115-0.0986-0.2195-0.1531-0.3279c-0.0541,0.0542-0.1616,0.1204-0.1527,0.1605c0.0258,0.115,0.0986,0.2194,0.1527,0.3279 C24.9861,88.4041,25.0932,88.338,25.0846,88.2978z M26.153,88.7026c-0.0545-0.0543-0.1206-0.1617-0.1605-0.1528 c-0.115,0.0257-0.2195,0.0985-0.3281,0.1528c0.0545,0.0543,0.1086,0.1085,0.174,0.1738 C25.9406,88.8198,26.047,88.7612,26.153,88.7026z M32.0153,88.7026c-0.1086-0.0543-0.2132-0.1271-0.3281-0.1527 c-0.0399-0.009-0.106,0.0984-0.1605,0.1527c0.1064,0.0586,0.2124,0.1172,0.3147,0.1738 C31.9067,88.8112,31.9608,88.7569,32.0153,88.7026z M33.5312,88.0022c-0.0743-0.2121-0.0832-0.3258-0.1251-0.3392 c-0.1012-0.0327-0.2662-0.0678-0.3188-0.0152c-0.2124,0.2116-0.4181,0.4406-0.5704,0.6963c-0.0579,0.0973,0.0343,0.2841,0.0582,0.43 c0.1654-0.0502,0.3748-0.0541,0.4864-0.1605C33.2655,88.419,33.4118,88.1638,33.5312,88.0022z M33.9691,91.1716 c0.0355,0.0352,0.0706,0.0704,0.1056,0.1056c0.0523-0.0949,0.1094-0.2015,0.1788-0.3365 C34.1591,91.0174,34.0643,91.0945,33.9691,91.1716z M33.9691,91.463c0-0.0245,0-0.0491,0-0.0735 c-0.1262,0.0452-0.268,0.0702-0.3699,0.1476c-0.0306,0.0231,0.0508,0.1931,0.0806,0.2957 C33.7455,91.7816,33.8138,91.7252,33.9691,91.463z M34.404,91.0954c0.0078-0.0147-0.0612-0.0636-0.2691,0.242 c0.0175,0.0174,0.0351,0.0347,0.0523,0.0521C34.2622,91.2929,34.3465,91.2014,34.404,91.0954z M36.7704,88.4359 c-0.0157-0.1682-0.0153-0.3714-0.0384-0.3741c-0.2117-0.0246-0.4274-0.0188-0.6406-0.0004 c-0.0093,0.0008-0.0194,0.301,0.0019,0.3051C36.3015,88.4074,36.5165,88.4154,36.7704,88.4359z M61.3266,82.3519 c-0.0545-0.0543-0.1206-0.1617-0.1609-0.1528c-0.115,0.0256-0.2191,0.0985-0.3278,0.1527c0.0541,0.0542,0.1202,0.1617,0.1605,0.1528 C61.1135,82.479,61.218,82.4062,61.3266,82.3519z M62.887,82.5344c-0.1893-0.1364-0.377-0.3145-0.5999-0.4111 c-0.0922-0.0399-0.2602,0.0948-0.3938,0.1502c0.2244,0.2643,0.4483,0.5286,0.6727,0.7929 C62.6414,82.9413,62.7172,82.8162,62.887,82.5344z M63.189,71.1995c-0.0258-0.115-0.0982-0.2194-0.1527-0.3279 c-0.0545,0.0542-0.1616,0.1204-0.1527,0.1606c0.0254,0.115,0.0982,0.2193,0.1527,0.3279 C63.0905,71.3058,63.198,71.2398,63.189,71.1995z M65.5165,82.8712c-0.0769-0.1695-0.1542-0.3388-0.2311-0.5081 c-0.3782-0.0852-0.7529-0.1936-1.1359-0.2411c-0.1135-0.014-0.2482,0.1438-0.3733,0.2229c0.3666,0.2466,0.7137,0.5373,1.1109,0.7173 C65.0372,83.13,65.3034,82.9423,65.5165,82.8712z M15.8941,99.4501c0.2046,0.0814,0.4125,0.2359,0.613,0.2269 c0.2871-0.013,0.5685-0.1455,0.8526-0.2269c-0.1952-0.0997-0.3905-0.1992-0.641-0.3272 C16.4398,99.2334,16.1669,99.3418,15.8941,99.4501z M35.9233,101.8926c-0.1086-0.0542-0.2128-0.1272-0.3278-0.1528 c-0.0403-0.009-0.1064,0.0985-0.1609,0.1528c0.1064,0.0586,0.2124,0.1173,0.3151,0.1739 C35.8147,102.0012,35.8692,101.9468,35.9233,101.8926z M37.8776,101.8926c-0.1236-0.0816-0.2471-0.1631-0.4285-0.2831 c-0.1639,0.0846-0.3561,0.1839-0.5487,0.2831c0.1236,0.0815,0.2557,0.2399,0.3688,0.2275 C37.4778,102.0973,37.6752,101.9741,37.8776,101.8926z M44.6958,102.3602c-0.2288-0.2288-0.4278-0.5815-0.6962-0.6463 c-0.2038-0.0491-0.4957,0.2686-0.7485,0.4229c-0.0452-0.1265-0.0702-0.2683-0.1475-0.3702 c-0.0231-0.0304-0.1934,0.0509-0.296,0.0809c0.0429,0.0551,0.0907,0.1142,0.2699,0.2893c0.0579,0,0.1157,0,0.1736,0 c0.1396,0.1746,0.2781,0.3479-0.0399,0.1282c0.1318,0.1254,0.3065,0.2884,0.5577,0.5187 C44.1773,102.5971,44.4364,102.4787,44.6958,102.3602z M45.9035,102.1146c0.0978-0.0722,0.1904-0.1402,0.2789-0.2052 c-0.1124-0.087-0.2285-0.2503-0.336-0.2446c-0.2027,0.0106-0.3998,0.1185-0.5991,0.1861 C45.3368,101.9201,45.4305,101.9898,45.9035,102.1146z M46.3383,102.4077c0.0541,0.0915,0.1127,0.1691,0.1885,0.1939 C46.659,102.6449,46.8184,102.5779,46.3383,102.4077z M47.3571,102.4327c-0.3796-0.156-0.5446-0.2477-0.7216-0.2889 c-0.1437-0.0336-0.3016-0.0069-0.4532-0.0069c0.0116,0.0166,0.0217,0.0364,0.0325,0.0545 C46.4963,102.2573,46.8598,102.3353,47.3571,102.4327z M49.5872,102.3959c-0.2105-0.2203-0.467-0.6506-0.6219-0.6167 c-0.3039,0.0665-0.551,0.3914-0.8213,0.6093c0.1919,0.0968,0.3838,0.1936,0.626,0.3158 C49.0462,102.6,49.3169,102.498,49.5872,102.3959z M51.9565,102.2931c-0.5947,0.0022-1.1897,0.0045-1.7847,0.0066 c0.0605,0.1085,0.1068,0.2969,0.1844,0.3108c0.2322,0.0415,0.4763,0.0149,0.716,0.0149c0.2397,0,0.4838,0.0258,0.716-0.0152 C51.8609,102.5973,51.9012,102.404,51.9565,102.2931z M54.4871,102.3812c-0.1236-0.0815-0.2553-0.24-0.3688-0.2275 c-0.2083,0.0228-0.4061,0.1461-0.6081,0.2275c0.1236,0.0816,0.2467,0.1631,0.4282,0.2831 C54.1026,102.5797,54.2948,102.4805,54.4871,102.3812z M68.0953,108.3138c-0.0564-0.1024-0.115-0.2085-0.174-0.3147 c-0.0541,0.0543-0.1616,0.1204-0.1527,0.1606c0.0258,0.1149,0.0985,0.2194,0.1527,0.3279 C67.9758,108.4334,68.0299,108.3791,68.0953,108.3138z M69.9001,108.7256c-0.3968-0.5379-0.4797-0.6977-0.6059-0.8082 c-0.1441-0.1263-0.3266-0.2087-0.4924-0.3102c-0.0478,0.2136-0.2023,0.5418-0.1213,0.6175 C68.8635,108.3958,69.1633,108.442,69.9001,108.7256z M80.2782,108.143c-0.115-0.1152-0.2158-0.3055-0.3479-0.3306 c-0.3367-0.0638-0.6876-0.0519-1.0329-0.0737c-1.1889-0.0753-2.3779-0.1881-3.5676-0.1974 c-0.2363-0.0019-0.4756,0.3915-0.7137,0.6026c0.2117,0.1146,0.4185,0.3155,0.6361,0.3279c0.7302,0.0415,1.4637,0.0157,2.1961,0.0157 c0.8138,0,1.6279,0.0156,2.4406-0.0154C80.0229,108.4671,80.1487,108.2578,80.2782,108.143z M80.2842,93.9818 c-0.595,0.0065-1.1897,0.0131-1.7847,0.0197c0.0657,0.1063,0.1101,0.2711,0.2023,0.3055c0.1407,0.0521,0.3147,0.0136,0.4745,0.0136 c0.3192,0,0.6406,0.0176,0.9568-0.0153C80.1938,94.2989,80.2341,94.0947,80.2842,93.9818z M85.8299,93.6652 c0.2128,0.0556,0.4241,0.1361,0.6398,0.1504c0.0579,0.0037,0.1292-0.193,0.2412-0.3724c-0.265-0.0379-0.4827-0.0963-0.6966-0.0836 C85.9471,93.3636,85.8911,93.558,85.8299,93.6652z M81.5254,94.2287c0.2083,0.0409,0.4233,0.0489,0.6775,0.0694 c-0.0161-0.1683-0.0157-0.3714-0.0385-0.3742c-0.2117-0.0245-0.4278-0.0187-0.6406-0.0003 C81.5142,93.9245,81.5045,94.2246,81.5254,94.2287z M82.8118,107.9084c-0.0082-0.131-0.1415-0.2538-0.2079-0.3651 c-0.3901,0.2587-0.7806,0.5178-1.1714,0.7768c0.1348,0.0558,0.2729,0.1654,0.4039,0.1575 C82.2496,108.4531,82.864,108.7142,82.8118,107.9084z M83.801,94.3041c0.137,0.0224,0.3031-0.1334,0.445-0.203 c-0.2789-0.299-0.489-0.5246-0.6992-0.7502c-0.2206,0.2204-0.4409,0.4409-0.6615,0.6613 C83.1899,94.115,83.4882,94.2532,83.801,94.3041z M85.0445,108.7256c-0.3972-0.5379-0.4797-0.6978-0.6059-0.8082 c-0.1441-0.1263-0.3266-0.2087-0.4924-0.3102c-0.0478,0.2136-0.2027,0.5418-0.1217,0.6176 C84.0078,108.3958,84.3076,108.442,85.0445,108.7256z M87.2085,107.7561c-0.5913-0.064-1.1837-0.1164-1.7762-0.1697 c0,0.1123-0.0287,0.3129,0.0045,0.3237c0.5387,0.1758,1.0841,0.3311,1.6339,0.4669c0.0161,0.0038,0.0971-0.2578,0.1389-0.3709 C87.2096,107.9029,87.217,107.757,87.2085,107.7561z M91.0146,107.6522c0.0056-0.0385-0.1079-0.1334-0.1687-0.1352 c-0.3968-0.0125-0.794-0.0063-1.5888-0.0063c-0.0646,0.0101-0.517,0.0808-0.9695,0.1516c0.0508,0.1123,0.1012,0.2245,0.1516,0.3369 c0.6324-0.3251,1.0949,1.2005,1.8191,0.1631c0.0959-0.1374,0.4274-0.0929,0.6264-0.184 C90.9642,107.9416,90.9982,107.7686,91.0146,107.6522z M91.0504,93.6636c-0.1437-0.1067-0.2859-0.2996-0.4312-0.3019 c-0.2934-0.0047-0.5883,0.0942-0.8829,0.1503c0.0691,0.1811,0.1381,0.3623,0.1717,0.4499 C90.4715,93.8148,90.7608,93.7392,91.0504,93.6636z M93.4743,93.4931c-0.595,0.0066-1.1897,0.0133-1.7847,0.0198 c0.0657,0.1064,0.1097,0.2712,0.2023,0.3055c0.1404,0.0522,0.3147,0.0137,0.4741,0.0137c0.3195,0,0.641,0.0175,0.9571-0.0153 C93.3839,93.8104,93.4242,93.6062,93.4743,93.4931z M95.4524,93.6581c-0.0564-0.1023-0.1153-0.2085-0.1736-0.3146 c-0.0545,0.0542-0.162,0.1204-0.1531,0.1606c0.0258,0.1149,0.0985,0.2193,0.1527,0.3279 C95.3329,93.7778,95.387,93.7235,95.4524,93.6581z M96.4084,93.6714c-0.0254-0.115-0.0986-0.2193-0.1527-0.3279 c-0.0541,0.0543-0.1616,0.1205-0.1527,0.1606c0.0254,0.1149,0.0982,0.2193,0.1527,0.3279 C96.3098,93.7778,96.4173,93.7117,96.4084,93.6714z M100.8196,93.6646c-0.5301-0.6941-1.2629-0.2282-1.8922-0.295 c-0.6088-0.0646-1.2405,0.0856-1.862,0.1415c0.5308,0.6889,1.2729,0.1349,2.0083,0.368 C99.5814,93.8167,100.2007,93.7406,100.8196,93.6646z M102.3434,93.7322c-0.112-0.1793-0.1833-0.3761-0.2411-0.3723 c-0.2158,0.0143-0.4267,0.0947-0.6398,0.1503c0.0612,0.1073,0.1172,0.3016,0.1848,0.3055 C101.8608,93.8286,102.0788,93.7701,102.3434,93.7322z M137.7067,92.9548c-0.2647-0.0379-0.4827-0.0962-0.6962-0.0836 c-0.0672,0.004-0.1232,0.1983-0.1844,0.3056c0.2128,0.0556,0.4241,0.136,0.6395,0.1503 C137.5238,93.331,137.5951,93.134,137.7067,92.9548z M141.1264,93.2438c-0.1116-0.1794-0.1833-0.3761-0.2411-0.3724 c-0.2158,0.0144-0.4267,0.0948-0.6398,0.1504c0.0612,0.1071,0.1172,0.3015,0.1848,0.3055 C140.6438,93.34,140.8618,93.2817,141.1264,93.2438z M141.5423,58.0095c-0.0258-0.115-0.0986-0.2195-0.1527-0.3279 c-0.0545,0.0543-0.162,0.1204-0.1531,0.1605c0.0258,0.115,0.0986,0.2194,0.1531,0.3279 C141.4438,58.1158,141.5513,58.0497,141.5423,58.0095z M150.3357,93.0156c0.009-0.0402-0.0986-0.1063-0.1531-0.1606 c-0.0586,0.1062-0.1172,0.2123-0.1736,0.3147c0.0653,0.0653,0.1195,0.1196,0.1736,0.1739 C150.2372,93.235,150.31,93.1305,150.3357,93.0156z M152.3814,107.2663c-0.0545-0.0543-0.1206-0.1616-0.1609-0.1527 c-0.115,0.0256-0.2191,0.0984-0.3278,0.1527c0.0541,0.0543,0.1202,0.1617,0.1605,0.1527 C152.1682,107.3935,152.2728,107.3207,152.3814,107.2663z M254.8104,104.8942c-0.0564-0.1025-0.115-0.2086-0.1736-0.3147 c-0.0541,0.0542-0.1616,0.1204-0.1527,0.1605c0.0254,0.115,0.0986,0.2194,0.1527,0.3279 C254.691,105.0137,254.7455,104.9595,254.8104,104.8942z M257.7307,104.7423c-0.5947-0.0022-1.1897-0.0044-1.7847-0.0065 c0.0553,0.1107,0.0862,0.2852,0.1713,0.3179c0.1393,0.0533,0.3139,0.0144,0.4737,0.0144c0.3192,0,0.6409,0.0194,0.9568-0.0147 C257.6191,105.0454,257.6703,104.8509,257.7307,104.7423z M260.2475,104.8311c-0.2154-0.2204-0.4774-0.651-0.6365-0.6159 c-0.3001,0.0661-0.5413,0.4005-0.8071,0.6234c0.1934,0.0943,0.3867,0.1887,0.6339,0.3094 C259.71,105.0415,259.9787,104.9363,260.2475,104.8311z M263.1857,104.3617c0.0355,0.0351,0.0706,0.0704,0.1057,0.1055 c0.0522-0.0948,0.1094-0.2014,0.1788-0.3363C263.3757,104.2074,263.2809,104.2845,263.1857,104.3617z M263.1857,104.6531 c0-0.0245,0-0.0491,0-0.0735c-0.1262,0.0451-0.268,0.0702-0.3699,0.1476c-0.0306,0.023,0.0508,0.193,0.0806,0.2957 C262.9625,104.9717,263.0304,104.9152,263.1857,104.6531z M263.6206,104.2855c0.0078-0.0147-0.0612-0.0637-0.2692,0.2419 c0.0175,0.0174,0.0351,0.0348,0.0523,0.0522C263.4792,104.483,263.5631,104.3915,263.6206,104.2855z M264.6513,104.3352 c-0.0541-0.0543-0.1202-0.1616-0.1605-0.1527c-0.115,0.0256-0.2191,0.0984-0.3278,0.1527c0.0541,0.0543,0.1086,0.1086,0.174,0.1739 C264.4393,104.4525,264.5453,104.3938,264.6513,104.3352z M269.9439,104.4167c-0.7152-0.6457-1.5794-0.2496-2.369-0.3025 c-0.7779-0.0521-1.5686,0.0853-2.3536,0.1396c0.7137,0.6566,1.5906,0.1257,2.4052,0.3944 C268.3779,104.5731,269.1607,104.4949,269.9439,104.4167z M271.9791,104.3352c-0.0541-0.0542-0.1202-0.1616-0.1605-0.1527 c-0.115,0.0256-0.2191,0.0984-0.3278,0.1527c0.0541,0.0543,0.1086,0.1085,0.174,0.1738 C271.7671,104.4525,271.8731,104.3938,271.9791,104.3352z M274.3514,103.7763c-0.0653-0.0652-0.1194-0.1196-0.174-0.1739 c-0.0541,0.1086-0.1269,0.213-0.1527,0.3279c-0.009,0.0402,0.0985,0.1064,0.1527,0.1606 C274.2361,103.9848,274.2951,103.8787,274.3514,103.7763z M278.2367,103.7609c0.0097-0.0349-0.1038-0.1482-0.1642-0.1512 c-0.3207-0.0155-0.6425-0.0073-1.1218-0.0073c-0.3554,0.2533-1.043-0.3617-1.4689,0.3272c0.5402,0.0538,1.0796,0.1186,1.6208,0.1572 c0.3195,0.0228,0.6447,0.0236,0.962-0.0106C278.1359,104.0685,278.2039,103.8776,278.2367,103.7609z M280.2652,103.7021 c-0.2647-0.0378-0.4823-0.0961-0.6962-0.0835c-0.0672,0.004-0.1232,0.1983-0.1844,0.3056c0.2128,0.0556,0.4241,0.136,0.6395,0.1503 C280.0823,104.0784,280.1536,103.8816,280.2652,103.7021z M282.6517,103.7719c-0.296-0.0565-0.5898-0.1299-0.8884-0.164 c-0.2367-0.027-0.4838-0.0328-0.7156,0.0092c-0.0825,0.0148-0.1512,0.1924-0.1896,0.3079 c-0.0116,0.0339,0.0989,0.1533,0.1594,0.1582c0.2382,0.019,0.4785,0.0078,0.959,0.0078 C282.0694,104.047,282.3605,103.9095,282.6517,103.7719z M285.1106,103.2994c-0.1687,0.0449-0.3348,0.1024-0.5058,0.132 c-0.3726,0.0645-0.7514,0.0979-1.1184,0.1839c-0.0844,0.0198-0.1486,0.195-0.1852,0.3105c-0.0108,0.0348,0.0986,0.1526,0.159,0.1574 c0.2367,0.0189,0.476,0.0078,0.7141,0.0078c0.1587,0,0.3337,0.0423,0.4726-0.0104c0.1885-0.0717,0.3879-0.1863,0.5073-0.3408 C285.2196,103.6547,285.13,103.4501,285.1106,103.2994z M288.0231,103.4357c-0.14-0.1072-0.2669-0.2633-0.4241-0.3053 c-0.1112-0.0297-0.2639,0.0947-0.3983,0.1503c0.0743,0.173,0.1482,0.346,0.1807,0.4222 C287.7547,103.5474,287.8891,103.4916,288.0231,103.4357z M290.5432,103.3582c-0.2061-0.0815-0.4061-0.2067-0.6189-0.234 c-0.3147-0.04-0.6406-0.0338-0.956,0.0008c-0.1333,0.0147-0.2535,0.1517-0.3793,0.2331c0.1258,0.0815,0.2426,0.1969,0.3804,0.2351 c0.1486,0.0409,0.3169,0.0091,0.4767,0.0091c0.1598,0,0.327,0.0302,0.4774-0.0073 C290.1367,103.5423,290.3372,103.4396,290.5432,103.3582z M292.0088,103.3582c-0.1236-0.0815-0.2557-0.2399-0.3688-0.2275 c-0.2087,0.0229-0.4062,0.1461-0.6085,0.2275c0.1236,0.0816,0.2471,0.1631,0.4286,0.2831 C291.6239,103.5567,291.8162,103.4574,292.0088,103.3582z M338.9976,102.8696c-0.0545-0.0542-0.1086-0.1085-0.174-0.1738 c-0.1023,0.0566-0.2087,0.1152-0.3147,0.1738c0.0545,0.0543,0.1206,0.1617,0.1605,0.1528 C338.7845,102.9967,338.889,102.924,338.9976,102.8696z M341.8444,102.9539c-0.1878-0.1465-0.3755-0.2931-0.5424-0.4234 c-0.3341,0.1129-0.5443,0.1838-0.7548,0.255c0.2165,0.1096,0.4241,0.2778,0.651,0.311 C341.4024,103.1261,341.6283,103.0072,341.8444,102.9539z M344.2936,102.9471c-0.1396-0.1072-0.2665-0.2632-0.4237-0.3052 c-0.1116-0.0297-0.2639,0.0946-0.3983,0.1503c0.0739,0.173,0.1482,0.346,0.1807,0.4222 C344.0256,103.0589,344.1596,103.003,344.2936,102.9471z M346.8137,86.7485c-0.106-0.0586-0.212-0.1173-0.3147-0.1739 c-0.0653,0.0653-0.1195,0.1196-0.1736,0.1739c0.1086,0.0542,0.2128,0.1272,0.3278,0.1528 C346.6935,86.9102,346.7596,86.8027,346.8137,86.7485z M349.5183,86.9767c0.2139,0.0125,0.4315-0.0458,0.6966-0.0836 c-0.112-0.1794-0.1833-0.3763-0.2411-0.3724c-0.2158,0.0144-0.4271,0.0948-0.6398,0.1503 C349.3951,86.7783,349.4511,86.9727,349.5183,86.9767z M352.103,102.3034c0.0112-0.0332-0.1008-0.1559-0.1602-0.1588 c-0.3195-0.0162-0.6406-0.0077-1.2729-0.0077c-0.1012,0.0379-0.476,0.1783-0.8507,0.3185c0.3774,0.0566,0.7529,0.1317,1.1322,0.1643 c0.3184,0.0274,0.6432,0.026,0.9597-0.0089C351.9888,102.6024,352.063,102.4188,352.103,102.3034z M352.5845,86.8322 c-0.0254-0.115-0.0982-0.2195-0.1527-0.3279c-0.0541,0.0542-0.1616,0.1204-0.1527,0.1605c0.0254,0.115,0.0986,0.2194,0.1527,0.3279 C352.486,86.9384,352.5935,86.8723,352.5845,86.8322z M374.6304,101.0385c-0.0284-0.1481-0.3393-0.3734-0.4797-0.3445 c-0.5137,0.1055-0.9997,0.3997-1.5119,0.4443c-0.8877,0.0774-1.7873,0.0215-2.6818,0.0215c-0.8134,0-1.6948-0.1983-2.4219,0.0521 c-0.8369,0.2884-1.541-0.1446-2.2958-0.0444c-0.9937,0.1318-1.9759,0.4087-2.9714,0.4599c-1.541,0.0794-3.0924-0.0426-4.6334,0.0392 c-1.482,0.0786-2.9573,0.2993-4.4326,0.482c-0.1605,0.0198-0.3009,0.2012-0.4509,0.3076c0.1392,0.0564,0.2777,0.1593,0.4181,0.1616 c0.8944,0.0148,1.7888,0.0076,2.6836,0.0076c0.813,0,1.9579,0.3364,2.3705-0.0702c0.853-0.8411,1.5257-0.0784,2.254-0.154 c1.342-0.1393,2.6862-0.2527,4.0298-0.3769c0.0041,0.0545,0.0082,0.109,0.0127,0.1635c3.2119-0.1798,6.4241-0.3597,9.6363-0.5389 c0.0814-0.0045,0.2169,0.0285,0.2352-0.0054C374.496,101.4483,374.6655,101.2202,374.6304,101.0385z M382.8814,100.9983 c-1.0467-0.7925-2.2424-0.0646-3.3791-0.3922c-1.0747,0.074-2.1845,0.1503-3.2943,0.2268c1.0602,0.656,2.2278,0.2559,3.3421,0.3047 C380.6565,101.1859,381.7708,101.0522,382.8814,100.9983z M384.989,10.1214c0.0649,0.0651,0.1194,0.1195,0.1736,0.1737 c0.0545-0.1085,0.1273-0.213,0.1527-0.3278c0.009-0.0403-0.0982-0.1064-0.1527-0.1607 C385.104,9.9127,385.0454,10.019,384.989,10.1214z M383.5302,4.7545c0.1344,0.0556,0.287,0.1801,0.3983,0.1503 c0.1572-0.0419,0.2841-0.1979,0.4241-0.3053c-0.134-0.0558-0.2684-0.1116-0.6417-0.2671 C383.6784,4.4086,383.6045,4.5815,383.5302,4.7545z M383.9415,100.9156c-0.1064-0.0586-0.2124-0.1172-0.3151-0.1738 c-0.0649,0.0651-0.1194,0.1195-0.1736,0.1738c0.1086,0.0542,0.2132,0.1271,0.3278,0.1527 C383.821,101.0773,383.8871,100.9698,383.9415,100.9156z M385.3321,13.3956c-0.296-0.0565-0.5902-0.13-0.8888-0.164 c-0.2367-0.027-0.4834-0.0326-0.7156,0.0092c-0.0821,0.0149-0.1508,0.1924-0.1896,0.308c-0.0112,0.0338,0.0993,0.1534,0.1598,0.1582 c0.2382,0.0189,0.4785,0.0077,0.9586,0.0077C384.7497,13.6707,385.0409,13.5332,385.3321,13.3956z M386.4546,4.7476 c0.0649,0.0652,0.1194,0.1195,0.1736,0.1738c0.0545-0.1085,0.1273-0.213,0.1527-0.3279c0.0089-0.0401-0.0982-0.1063-0.1527-0.1605 C386.5695,4.539,386.511,4.6451,386.4546,4.7476z M387.7738,100.5028c-0.1437-0.1067-0.2859-0.2997-0.4312-0.3019 c-0.2934-0.0047-0.5883,0.0943-0.8828,0.1504c0.0691,0.181,0.1381,0.3621,0.1717,0.4498 C387.1948,100.6541,387.4841,100.5785,387.7738,100.5028z M392.1694,100.3503c-0.5376-0.079-1.0755-0.1579-1.7004-0.2497 c-0.5965,0.4333-1.4454-0.3778-2.0543,0.4034c0.7022,0.0558,1.4084,0.1824,2.1058,0.1448 C391.0689,100.6192,391.7226,100.9831,392.1694,100.3503z M394.7802,100.3434c0.0258,0.115,0.0985,0.2194,0.1527,0.3279 c0.0545-0.0543,0.162-0.1204,0.153-0.1605c-0.0258-0.115-0.0985-0.2195-0.1527-0.3279 C394.8788,100.2371,394.7713,100.3032,394.7802,100.3434z M393.3009,100.5045c0.2128,0.0555,0.424,0.136,0.6394,0.1503 c0.0583,0.0039,0.1295-0.193,0.2411-0.3723c-0.2646-0.0379-0.4827-0.0962-0.6962-0.0837 C393.4181,100.2029,393.3621,100.3973,393.3009,100.5045z M395.6661,85.7715c-0.0545-0.0543-0.1206-0.1616-0.1609-0.1527 c-0.115,0.0256-0.2191,0.0984-0.3278,0.1527c0.0541,0.0542,0.1086,0.1084,0.1736,0.1738 C395.4537,85.8887,395.5597,85.8301,395.6661,85.7715z M400.0624,88.7026c0.0545,0.0543,0.1086,0.1085,0.174,0.1738 c0.1023-0.0566,0.2087-0.1152,0.3147-0.1738c-0.0541-0.0543-0.1202-0.1616-0.1605-0.1527 C400.2755,88.5755,400.171,88.6483,400.0624,88.7026z M403.4822,75.0241c-0.1086-0.0543-0.2128-0.1271-0.3278-0.1528 c-0.0403-0.009-0.1064,0.0985-0.1609,0.1528c0.1064,0.0586,0.2124,0.1172,0.3151,0.1738 C403.3735,75.1326,403.428,75.0784,403.4822,75.0241z M405.3065,75.2458c-0.0161-0.1682-0.0157-0.3714-0.0388-0.374 c-0.2117-0.0246-0.4274-0.0189-0.6402-0.0004c-0.0097,0.0007-0.0198,0.301,0.0015,0.3051 C404.8372,75.2174,405.0523,75.2253,405.3065,75.2458z M406.8105,74.9404c0.009-0.0402-0.0985-0.1063-0.153-0.1606 c-0.0586,0.1062-0.1172,0.2124-0.1736,0.3147c0.0653,0.0653,0.1195,0.1196,0.1736,0.1739 C406.7119,75.1598,406.7847,75.0552,406.8105,74.9404z M412.3349,77.0374c0.2848,0.1643,0.5618,0.4436,0.856,0.4631 c0.3516,0.0233,0.8235-0.3701,1.0594-0.2426c0.8007,0.4334,1.4854,0.75,2.3017-0.0028c0.162-0.1498,0.7152,0.106,1.0811,0.2023 c0.2139,0.0564,0.4864,0.296,0.6047,0.2286c0.3192-0.1814,0.5696-0.4832,0.8474-0.7374c-0.3606-0.0755-0.2792-0.8072-1.0549-0.4472 c-0.8056,0.3738-1.8527,0.2261-2.7938,0.3065c-0.0019-0.0247-0.0037-0.0494-0.0056-0.0741c-0.8052,0-1.6112-0.0165-2.4153,0.0137 C412.6519,76.7537,412.4951,76.9363,412.3349,77.0374z M410.3288,76.9707c0.2154,0.2203,0.4774,0.6511,0.6365,0.616 c0.3001-0.0662,0.5413-0.4006,0.8071-0.6234c-0.1934-0.0944-0.3867-0.1889-0.6339-0.3095 C410.8664,76.7603,410.5976,76.8655,410.3288,76.9707z M409.4359,76.8945c0.0258,0.115,0.0985,0.2193,0.1527,0.3279 c0.0545-0.0542,0.1086-0.1085,0.174-0.1738c-0.0567-0.1024-0.1154-0.2086-0.174-0.3147 C409.5345,76.7881,409.4269,76.8542,409.4359,76.8945z M462.7085,39.4925c0.0089-0.0401-0.0982-0.1063-0.1527-0.1605 c-0.0586,0.106-0.1172,0.2122-0.1736,0.3147c0.0649,0.0651,0.1194,0.1195,0.1736,0.1738 C462.6104,39.7118,462.6831,39.6075,462.7085,39.4925z M62.4585,58.1177c0.9706-0.37,1.8437-0.2497,2.7695,0.161 c0.5215-0.2112,1.018-0.3681,1.4663-0.613c0.212-0.1158,0.5118-0.5066,0.4629-0.5889c-0.193-0.3241-0.283-0.8086-0.9209-0.6671 c-0.7399,0.1642-1.806,0.5206-2.2222,0.1771c-1.3487-1.1124-1.9718,0.0202-2.7994,0.6148c-0.109,0.0782-0.134,0.2734-0.1978,0.4145 C61.5039,57.8009,62.0945,58.2565,62.4585,58.1177z M61.3583,108.2389c-2.4585,0.4076-4.9044,0.3814-7.3622,0.0213 c-0.2878-0.0422-0.6156,0.1278-0.9123,0.2343c-0.1766,0.0635-0.3289,0.1952-0.492,0.2962c0.1374,0.0619,0.274,0.1764,0.4117,0.1774 c1.6276,0.0125,3.2555,0.0081,4.8835,0.0081c1.628,0,3.2559,0.0038,4.8835-0.0069c0.1415-0.0009,0.2822-0.0982,0.4233-0.1508 c-0.1407-0.1103-0.2662-0.2785-0.4248-0.3199C62.3043,108.3771,61.8033,108.1651,61.3583,108.2389z M39.3252,52.4187 c-0.0302-0.2079-0.1702-0.5738-0.2583-0.5719c-0.7048,0.0142-1.4622-0.0421-2.0979,0.2003 c-0.7052,0.2689-1.3121-0.7582-1.8195-0.1325c-0.5465,0.6745-0.7507-0.1293-1.1143-0.0909 c-0.1478,0.0157-0.2904,0.0791-0.4353,0.1209c0.0926,0.1721,0.1437,0.4067,0.2874,0.5023c0.2445,0.1626,0.5413,0.3128,0.8265,0.3343 c0.6454,0.0484,1.2968,0.0152,1.946,0.0152c0.8112,0,1.6227,0.0116,2.4332-0.0167C39.1804,52.7766,39.3416,52.5308,39.3252,52.4187z M30.4665,79.4572c0.5293-0.528,0.5943,0.2124,1.0113,0.193c0.3811-0.1553,0.8661-0.344,1.3383-0.5599 c0.0429-0.0197,0.0526-0.2791-0.0015-0.3185c-0.4898-0.3566-0.9594-0.8133-1.5137-0.9819 c-0.3334-0.1013-0.7989,0.2841-1.2184,0.4032c-0.585,0.1661-1.1371,0.5355-0.9538,1.1092 C29.3417,79.9697,30.0794,79.8439,30.4665,79.4572z M35.1999,62.5819c-0.1325,0.2612-0.2647,0.5784-0.2337,0.8541 c0.0552,0.487,0.4924,1.1981,0.3113,1.3958c-0.6111,0.6672,0.1265,0.771,0.3337,1.0477c0.081,0.1079,0.5611,0.102,0.604,0.018 c0.1318-0.2593,0.1949-0.5843,0.1777-0.8775c-0.0116-0.2007-0.3307-0.4302-0.2856-0.578c0.0963-0.3176,0.339-0.5906,0.5502-0.9267 c0.5827,0.7142,0.7354,0.4477,0.7167-0.0792C37.3684,63.2568,35.263,62.4577,35.1999,62.5819z M25.1272,93.5783 c0.3259-0.3444,1.3805-0.0447,0.9818-0.95c-0.1042-0.2364-0.7496-0.2343-0.8504-0.2617c-0.5599,0-0.8108,0.0413-1.043-0.0079 c-0.66-0.1403-1.0505,0.2364-1.42,0.6786c0.4144,0.265,0.7996,0.6277,1.2528,0.7618 C24.3709,93.8944,24.9133,93.8039,25.1272,93.5783z M17.1446,89.4404c-1.3267-0.0855-0.5327,0.959-0.7619,1.4605 c0.5872,0.3268,1.0139-0.6421,1.815-0.0748c0.5973,0.4229,1.0807-0.4586,0.6275-1.3907 C18.2652,88.6849,17.7068,89.4766,17.1446,89.4404z M16.5122,104.6939c-0.5469,1.0411-1.5428-0.5915-2.1435,0.3623 c-0.1363,0.2164-0.8713-0.2947-0.7432,0.377c0.0485,0.2537,0.5812,0.4752,0.9325,0.5919c0.2934,0.0972,0.6443,0.02,0.9698,0.02 c0.3251,0,0.6615,0.0523,0.9739-0.0112c0.5969-0.1215,0.333-0.632,0.3498-0.9861 C16.8568,104.9354,16.6321,104.8122,16.5122,104.6939z M22.0464,79.6509c0.3998,0.031,0.8037,0.014,1.2659,0.014 c0.6074-0.1665,1.3666,0.3315,1.9923-0.3253c0.1146-0.1205,0.7649,0.1541,0.7944,0.0857c0.2516-0.5847-0.2807-0.8586-0.6271-1.1236 c-0.143-0.1094-0.6006,0.0144-0.7899,0.1773c-0.5387,0.4633-0.9691,1.1688-1.7291,0.2503 c-0.0556-0.0672-0.6301,0.2897-0.9586,0.4586c-0.0683,0.035-0.174,0.1368-0.1624,0.1629 C21.8829,79.4645,21.9643,79.6446,22.0464,79.6509z M29.4519,65.9746c0.4864,0.0286,0.9754,0.0118,1.4637,0.0118 c0.5697,0,1.1397,0.0147,1.7078-0.0116c0.1221-0.0058,0.2374-0.16,0.3558-0.2458c-0.4603-0.3452-0.9276-0.9797-1.379-0.9689 c-0.7085,0.0171-1.4081,0.4659-2.108,0.741c-0.1396,0.0549-0.2632,0.1503-0.3938,0.227 C29.2159,65.8142,29.3294,65.9674,29.4519,65.9746z M30.9021,64.0323c0.5678,0,0.9052,0.053,1.2117-0.0218 c0.1583-0.0386,0.2927-0.2894,0.3778-0.4722c0.0493-0.1051-1.1038-0.9661-1.2438-0.9746c-0.6861-0.0415-0.987,0.4027-1.174,0.954 c-0.0377,0.1117,0.0579,0.3773,0.1426,0.4025C30.5128,64.0084,30.8312,64.0226,30.9021,64.0323z M14.6775,76.2371 c0.5581-0.0327,1.0273,0.0582,1.526,0.4136c0.162,0.1155,0.8627-0.4849,1.2853-0.8003c0.1221-0.0911,0.1344-0.3295,0.1967-0.5004 c-0.5185,0.2377-0.8086-0.8351-1.3256-0.2775c-0.4704,0.5071-0.9426,0.838-1.6612,0.699c-0.0474-0.0091-0.1359,0.194-0.1949,0.2828 C14.57,76.1269,14.6271,76.2401,14.6775,76.2371z M1.3452,99.1807c0.6014-0.0347,0.4375-0.6182,0.3513-0.9151 c-0.1079-0.3712-0.4397-0.6773-0.8851-1.3101c-0.2486,0.8002-0.5144,1.2822-0.5237,1.7692 C0.2723,99.5146,0.9704,99.2024,1.3452,99.1807z M1.727,99.9514c-0.1385-0.0717-0.3083-0.2111-0.498-0.248 c-0.4935-0.0958-0.9,0.0424-1.2285,0.4688c-0.022,0.0283,0.6324,0.0533,1.7265,0.076C1.7412,100.2052,1.727,100.1029,1.727,99.9514z M20.5427,87.9743c0.0209-0.0353,0.1915,0.0299,0.2285-0.0103c0.1777-0.1947,0.5144-0.475,0.467-0.6064 c-0.2927-0.809-0.4733,0.1959-0.7862,0.0408c-0.0209-0.0212-0.0728-0.0853-0.1363-0.1344 c-0.5745-0.4448-0.8276,0.4959-1.3424,0.3135c0.0153,0.1143,0.031,0.2286,0.0467,0.343 C19.5326,87.7065,19.9973,88.9003,20.5427,87.9743z M50.4148,55.3257c-0.9997,0.1202-0.682-1.063-1.3032-1.3109 c-0.1135-0.0453-0.2199-0.1172-0.3367-0.1388c-0.0385-0.0071-0.1307,0.0986-0.1452,0.1644 c-0.1635,0.7408,0.8511,1.8296,1.5727,1.6795c0.1355-0.028,0.2505-0.1536,0.3856-0.2412 C50.5282,55.4238,50.4652,55.3197,50.4148,55.3257z M23.2409,70.3888c-0.1426,0.0234-0.277,0.0953-0.4147,0.1458 c0.1299,0.1124,0.2456,0.2497,0.3927,0.3319c0.3203,0.1794,0.6443,0.3759,0.9926,0.4688c0.1191,0.0317,0.4229-0.2069,0.4483-0.3552 c0.0306-0.1808-0.0915-0.4899-0.2419-0.5729c-0.1825-0.101-0.4633-0.0241-0.7014-0.0241 C23.5575,70.383,23.3955,70.3634,23.2409,70.3888z M24.7588,102.7851c-0.1262-0.3028-0.2128-0.5577-0.2329-0.5525 c-0.5446,0.1389-1.0844,0.2986-1.6168,0.4786c-0.0366,0.0123-0.05,0.2867-0.0086,0.3074c0.3699,0.1846,0.7668,0.4862,1.1307,0.4558 C24.3093,103.451,24.5512,102.9963,24.7588,102.7851z M6.5799,105.0747c-0.1419,0.0213-0.2714,0.123-0.4065,0.1878 c0.0881,0.098,0.1579,0.238,0.268,0.2866c0.4106,0.1815,0.828,0.354,1.2573,0.4799c0.0959,0.0281,0.2512-0.1474,0.408-0.2475 c-0.0963-0.0796-0.2094-0.1362-0.2677-0.2276C7.5352,105.0784,7.082,104.9993,6.5799,105.0747z M12.4261,91.0896 c0.1732,0.125,1.5148-0.2661,1.5007-0.4331c-0.0071-0.0871-0.1407-0.2204-0.2314-0.2329c-0.2385-0.0328-0.4845-0.0111-0.7276-0.0111 c-0.162,0-0.3412-0.0438-0.4812,0.0117c-0.1545,0.0612-0.2733,0.2134-0.4073,0.3259C12.1939,90.8646,12.2962,90.996,12.4261,91.0896 z M53.3351,57.2809c-0.3113-0.1998-0.6495-0.364-0.993-0.5026c-0.0594-0.024-0.2934,0.1961-0.2833,0.2151 c0.2102,0.3894,0.4439,0.7658,0.6286,1.072c0.417-0.1946,0.6305-0.2741,0.8112-0.4004 C53.5254,57.6462,53.4373,57.3463,53.3351,57.2809z M8.5662,105.5565c0.4913,0.6694,0.9743,0.6694,1.4656,0 C9.299,105.1374,9.299,105.1374,8.5662,105.5565z M18.8002,65.9658c0.0519-0.088-0.171-0.3373-0.3867-0.724 c-0.2613,0.347-0.4827,0.5319-0.5375,0.7572c-0.0299,0.1233,0.2225,0.3151,0.3475,0.476 C18.4243,66.3101,18.677,66.176,18.8002,65.9658z M12.1969,104.5067c-0.1112,0.3014-0.2438,0.5013-0.1971,0.5609 c0.246,0.3141,0.5372,0.5928,0.8127,0.8836c0.05-0.1349,0.1825-0.3193,0.1363-0.3966 C12.7449,105.2139,12.4896,104.904,12.1969,104.5067z M37.4673,70.7058c0.1336,0.0553,0.3334,0.1944,0.3886,0.1508 c0.1967-0.1558,0.3714-0.3586,0.4931-0.5777c0.0355-0.0636-0.1336-0.241-0.2382-0.4155 C37.8876,70.1552,37.6775,70.4305,37.4673,70.7058z M15.3804,89.8623c-0.0836-0.2122-0.3266-0.3615-0.5991-0.6337 c-0.1751,0.3453-0.3782,0.629-0.333,0.6764c0.1922,0.2018,0.458,0.3337,0.6969,0.4912 C15.2318,90.2149,15.4304,89.9896,15.3804,89.8623z M38.912,65.7725c-0.2397-0.2291-0.4073-0.4385-0.6227-0.5696 c-0.0795-0.0485-0.2714,0.0869-0.4117,0.1385c0.1366,0.2149,0.2329,0.49,0.4267,0.6207 C38.4076,66.0319,38.679,65.8523,38.912,65.7725z M403.0066,15.4042c0.0661,0.2439,0.1777,0.4755,0.2733,0.7114 c0.0676-0.1236,0.1351-0.2471,0.2378-0.4343c-0.0873-0.1478-0.1919-0.3244-0.2964-0.501 C403.1455,15.2561,402.9928,15.3527,403.0066,15.4042z M408.839,2.5985c-0.0228-0.2085-0.1459-0.4061-0.2273-0.6083 c-0.0818,0.1234-0.1631,0.2468-0.283,0.4284c0.0844,0.164,0.1837,0.3563,0.283,0.5487 C408.6931,2.8438,408.8517,2.7118,408.839,2.5985z M16.8583,65.9699c0.1572-0.042,0.2841-0.198,0.4237-0.3052 c-0.134-0.056-0.268-0.1118-0.651-0.2712c-0.0295,0.0739-0.1224,0.2466-0.1508,0.4292 C16.4745,65.8564,16.7467,65.9996,16.8583,65.9699z M407.6142,4.9083c0.2438-0.0661,0.4756-0.1776,0.7115-0.2729 c-0.1236-0.0678-0.2471-0.1355-0.4345-0.2382c-0.1475,0.0875-0.3244,0.1921-0.501,0.2967 C407.466,4.7697,407.5627,4.9223,407.6142,4.9083z M33.8508,65.9709c0.2098-0.0061,0.4166-0.1078,0.6749-0.1845 c-0.1915-0.1259-0.3233-0.2843-0.4368-0.2719c-0.2083,0.0229-0.4061,0.1461-0.6081,0.2276 C33.6044,65.8236,33.7298,65.9745,33.8508,65.9709z M410.0026,10.2033c0.2083,0.041,0.4233,0.0488,0.6776,0.0693 c-0.0161-0.1682-0.0157-0.3714-0.0385-0.374c-0.2117-0.0246-0.4278-0.0189-0.6406-0.0004 C409.9914,9.899,409.9817,10.1992,410.0026,10.2033z M404.9351,13.2427c-0.1116-0.0297-0.2643,0.0946-0.3983,0.1503 c0.0739,0.173,0.1478,0.346,0.1807,0.4222c0.3733-0.1555,0.5073-0.2114,0.6413-0.2673 C405.2191,13.4408,405.0922,13.2847,404.9351,13.2427z M26.8082,69.972c-0.0556,0.1342-0.1799,0.2868-0.1501,0.3983 c0.0418,0.1572,0.1978,0.284,0.305,0.4238c0.056-0.1341,0.112-0.2682,0.2673-0.6414C27.1542,70.1201,26.9814,70.0461,26.8082,69.972 z M55.4453,57.7813c-0.2647-0.0379-0.4827-0.0961-0.6962-0.0836c-0.0672,0.004-0.1232,0.1984-0.1844,0.3056 c0.2128,0.0555,0.4241,0.136,0.6395,0.1503C55.2624,58.1575,55.3337,57.9606,55.4453,57.7813z M29.5564,63.7704 c0.0127-0.2137-0.0455-0.4316-0.0836-0.6963c-0.1792,0.1118-0.3759,0.1831-0.3722,0.2411c0.0142,0.2156,0.0948,0.4268,0.1504,0.6396 C29.3582,63.8936,29.5526,63.8376,29.5564,63.7704z M5.703,98.0287c-0.1911-0.1258-0.3233-0.2843-0.4368-0.2718 c-0.2083,0.0229-0.4061,0.1461-0.6081,0.2275c0.1236,0.0814,0.249,0.2323,0.3699,0.2288 C5.2379,98.2072,5.4447,98.1054,5.703,98.0287z M16.6112,92.8714c-0.2154,0.0144-0.4267,0.0948-0.6395,0.1504 c0.0612,0.1071,0.1172,0.3016,0.1844,0.3055c0.2135,0.0126,0.4315-0.0457,0.6962-0.0836 C16.7407,93.0644,16.669,92.8676,16.6112,92.8714z M11.0479,90.9611c-0.0847-0.1639-0.184-0.3563-0.2833-0.5487 c-0.0814,0.1235-0.24,0.2554-0.2273,0.3687c0.0228,0.2087,0.146,0.4062,0.2273,0.6083 C10.8463,91.2661,10.9277,91.1426,11.0479,90.9611z M22.0423,87.4396c0.0679-0.1236,0.1355-0.2471,0.2382-0.4343 c-0.0874-0.1478-0.1922-0.3244-0.2968-0.501c-0.0758,0.0758-0.2281,0.1725-0.2143,0.2239 C21.8355,86.972,21.9471,87.2036,22.0423,87.4396z M21.3162,86.6004c0.1699-0.1249,0.305-0.2242,0.4401-0.3236 c-0.1124-0.087-0.2285-0.2503-0.336-0.2447c-0.2023,0.0107-0.3998,0.1187-0.5995,0.1863 C20.9675,86.3313,21.1139,86.4442,21.3162,86.6004z M28.0882,78.7877c-0.2647-0.0379-0.4823-0.0962-0.6962-0.0836 c-0.0672,0.0039-0.1232,0.1984-0.1844,0.3056c0.2128,0.0555,0.4241,0.136,0.6395,0.1503 C27.9053,79.1638,27.9766,78.967,28.0882,78.7877z M20.3684,79.0097c0.2128,0.0555,0.4241,0.136,0.6395,0.1503 c0.0579,0.0039,0.1295-0.193,0.2411-0.3724c-0.2647-0.0379-0.4827-0.0961-0.6962-0.0836 C20.4856,78.708,20.4293,78.9024,20.3684,79.0097z M21.1486,76.2453c0.2027-0.1628,0.405-0.3257,0.6077-0.4885 c-0.3255,0-0.6514,0-0.9769,0C20.9022,75.9196,21.0254,76.0826,21.1486,76.2453z M35.5541,70.5083 c0.0276,0.1071,0.0564,0.3074,0.0832,0.3072c0.2628-0.003,0.5252-0.0392,0.968-0.0844c-0.2565-0.212-0.3408-0.3394-0.4203-0.3365 C35.9734,70.4025,35.7639,70.4665,35.5541,70.5083z M30.1387,70.7048c0.134,0.0556,0.2867,0.1799,0.3983,0.1503 c0.1572-0.042,0.2837-0.1979,0.4237-0.3052c-0.134-0.0558-0.2684-0.1118-0.6417-0.2673 C30.2865,70.3588,30.2126,70.5318,30.1387,70.7048z M410.3214,2.2346c-0.1086-0.0543-0.2128-0.1272-0.3277-0.1529 c-0.0403-0.009-0.1064,0.0986-0.1605,0.1529c0.106,0.0586,0.2124,0.1172,0.3147,0.1738 C410.2127,2.343,410.2672,2.2887,410.3214,2.2346z M70.5545,11.9551c0.0097-0.0181-0.0941-0.098-0.1508-0.1545 c-0.0941,0.0766-0.1889,0.1538-0.2841,0.2309c0.0728,0.0726,0.1452,0.1452,0.218,0.2178 C70.4127,12.1527,70.497,12.0612,70.5545,11.9551z M406.0161,12.8983c0.0258,0.115,0.0986,0.2194,0.1531,0.3279 c0.0541-0.0542,0.1086-0.1085,0.174-0.1738c-0.0568-0.1025-0.1154-0.2086-0.174-0.3148 C406.1147,12.792,406.0072,12.8581,406.0161,12.8983z M405.3658,15.0066c-0.0567-0.1025-0.1154-0.2087-0.174-0.3148 c-0.0541,0.0542-0.1617,0.1204-0.1527,0.1606c0.0258,0.115,0.0985,0.2193,0.1527,0.3279 C405.2464,15.126,405.3005,15.0717,405.3658,15.0066z M404.0414,15.9835c0.0649,0.0653,0.1194,0.1195,0.1736,0.1739 c0.0541-0.1085,0.1273-0.213,0.1527-0.3279c0.0089-0.0402-0.0985-0.1063-0.1527-0.1606 C404.1563,15.775,404.0977,15.8811,404.0414,15.9835z M41.5415,54.2619c-0.0545,0.0542-0.1616,0.1205-0.1527,0.1606 c0.0254,0.115,0.0982,0.2193,0.1527,0.3279c0.0541-0.0543,0.1086-0.1086,0.1736-0.1739 C41.6587,54.4742,41.6001,54.368,41.5415,54.2619z M51.7553,55.1938c0.0963-0.0751,0.193-0.1503,0.2893-0.2256 c0-0.0726,0-0.1452,0-0.2178c-0.1265,0.0451-0.2684,0.0702-0.3703,0.1476C51.644,54.9212,51.725,55.0911,51.7553,55.1938z M56.4413,54.9947c-0.1064-0.0586-0.2124-0.1172-0.3147-0.1739c-0.0653,0.0653-0.1195,0.1195-0.174,0.1739 c0.1086,0.0543,0.2132,0.1272,0.3281,0.1528C56.3207,55.1564,56.3871,55.0489,56.4413,54.9947z M48.1365,55.4832 c-0.1064-0.0586-0.2124-0.1172-0.3151-0.1739c-0.065,0.0652-0.1195,0.1195-0.1736,0.1739c0.1086,0.0542,0.2132,0.1271,0.3281,0.1527 C48.0159,55.6449,48.082,55.5375,48.1365,55.4832z M50.7395,58.0786c0.115-0.0256,0.2195-0.0986,0.3281-0.1528 c-0.0545-0.0543-0.1086-0.1085-0.174-0.1739c-0.1023,0.0566-0.2087,0.1152-0.3147,0.1739 C50.6331,57.98,50.6996,58.0876,50.7395,58.0786z M53.9588,57.9657c-0.0765-0.0943-0.1538-0.1893-0.2311-0.2841 c-0.0724,0.0726-0.1448,0.1452-0.2176,0.2178c0.0963,0.0752,0.1881,0.1594,0.2942,0.2169 C53.8222,58.1262,53.9021,58.0223,53.9588,57.9657z M16.0546,63.4522c0.115-0.0256,0.2195-0.0984,0.3281-0.1526 c-0.0545-0.0544-0.1206-0.1617-0.1609-0.1528c-0.1146,0.0256-0.2191,0.0984-0.3278,0.1527 C15.9482,63.3538,16.0143,63.4612,16.0546,63.4522z M32.788,63.0952c-0.0944,0.0765-0.1893,0.1537-0.2845,0.2308 c0.0728,0.0726,0.1456,0.1453,0.218,0.2179c0.0754-0.0965,0.1594-0.1881,0.2169-0.2942 C32.9485,63.2316,32.8444,63.1517,32.788,63.0952z M18.2451,63.8717c-0.0254-0.1149-0.0982-0.2194-0.1527-0.3279 c-0.0541,0.0543-0.1616,0.1205-0.1527,0.1606c0.0254,0.115,0.0986,0.2194,0.1527,0.3279 C18.1465,63.978,18.254,63.9119,18.2451,63.8717z M23.8711,65.8949c0.115-0.0256,0.2195-0.0984,0.3278-0.1527 c-0.0541-0.0543-0.1202-0.1618-0.1605-0.1529c-0.115,0.0258-0.2195,0.0985-0.3278,0.1529 C23.7647,65.7964,23.8307,65.9038,23.8711,65.8949z M28.0158,65.8258c-0.0258-0.115-0.0986-0.2195-0.1531-0.3279 c-0.0541,0.0543-0.1616,0.1205-0.1527,0.1606c0.0258,0.1149,0.0986,0.2194,0.1527,0.3279 C27.9172,65.9321,28.0244,65.8661,28.0158,65.8258z M36.9921,65.8258c-0.009,0.0401,0.0982,0.1063,0.1527,0.1605 c0.0586-0.1061,0.1172-0.2122,0.1736-0.3146c-0.065-0.0652-0.1195-0.1195-0.1736-0.1739 C37.0903,65.6065,37.0175,65.7108,36.9921,65.8258z M15.0777,66.3833c0.115-0.0256,0.2191-0.0984,0.3278-0.1527 c-0.0541-0.0543-0.1083-0.1086-0.1736-0.1739c-0.1027,0.0566-0.2087,0.1153-0.3147,0.1739 C14.9713,66.285,15.0373,66.3923,15.0777,66.3833z M50.7395,67.5435c-0.0399-0.0089-0.1064,0.0985-0.1605,0.1528 c0.106,0.0586,0.2124,0.1172,0.3147,0.1738c0.0653-0.0652,0.1195-0.1195,0.174-0.1738 C50.959,67.6419,50.8545,67.569,50.7395,67.5435z M51.6011,67.6511c0.075,0.0965,0.1504,0.193,0.2255,0.2895 c0.0728-0.0001,0.1452-0.0001,0.218-0.0001c-0.0452-0.1264-0.0702-0.2683-0.1475-0.3702 C51.874,67.5398,51.7038,67.621,51.6011,67.6511z M54.8842,67.7799c-0.0258-0.115-0.0985-0.2193-0.1527-0.3279 c-0.0545,0.0543-0.1086,0.1086-0.174,0.174c0.0564,0.1023,0.1153,0.2085,0.174,0.3146 C54.7857,67.8862,54.8932,67.8201,54.8842,67.7799z M52.4933,68.2246c-0.0765-0.0943-0.1538-0.1893-0.2311-0.2842 c-0.0724,0.0726-0.1448,0.1452-0.2176,0.2179c0.0963,0.0751,0.1881,0.1593,0.2942,0.2169 C52.3567,68.3851,52.4365,68.2812,52.4933,68.2246z M53.9282,68.2552c-0.0567-0.1025-0.1153-0.2087-0.174-0.3148 c-0.0541,0.0542-0.1616,0.1205-0.1527,0.1606c0.0258,0.115,0.0986,0.2193,0.1527,0.3279 C53.8088,68.3747,53.8629,68.3204,53.9282,68.2552z M36.8465,70.089c0.0101-0.0181-0.0941-0.0979-0.1504-0.1546 c-0.0944,0.0767-0.1893,0.1538-0.2841,0.2309c0.0724,0.0726,0.1452,0.1452,0.2176,0.2178 C36.705,70.2866,36.789,70.1951,36.8465,70.089z M51.8004,108.4876c-0.0586,0.1062-0.1176,0.2124-0.174,0.3147 c0.0653,0.0653,0.1195,0.1196,0.174,0.174c0.0541-0.1086,0.1269-0.2131,0.1527-0.3279 C51.9621,108.6081,51.8546,108.5419,51.8004,108.4876z M40.9001,108.1597c0.0258,0.1149,0.0985,0.2194,0.1527,0.3279 c0.0545-0.0542,0.1086-0.1084,0.174-0.1738c-0.0567-0.1024-0.1153-0.2085-0.174-0.3147 C40.9987,108.0534,40.8912,108.1195,40.9001,108.1597z M11.0087,105.8008c0.1064,0.0586,0.2124,0.1173,0.3147,0.1738 c0.0653-0.0652,0.1198-0.1195,0.174-0.1738c-0.1086-0.0543-0.2128-0.1271-0.3278-0.1527 C11.1293,105.6391,11.0632,105.7465,11.0087,105.8008z M10.3159,105.1079c-0.0944,0.0765-0.1893,0.1536-0.2841,0.2307 c0.0728,0.0726,0.1452,0.1453,0.218,0.2179c0.075-0.0964,0.159-0.188,0.2169-0.2941 C10.4764,105.2444,10.3726,105.1645,10.3159,105.1079z M8.0776,105.5565c0.1631,0,0.3259,0,0.4886,0 c-0.0538-0.135-0.1071-0.2701-0.1609-0.4051C8.2963,105.2865,8.187,105.4215,8.0776,105.5565z M5.1468,105.3123 c0.106,0.0586,0.212,0.1172,0.3143,0.1738c0.0653-0.0653,0.1198-0.1195,0.174-0.1738c-0.1086-0.0543-0.2128-0.1272-0.3278-0.1528 C5.267,105.1506,5.2009,105.258,5.1468,105.3123z M11.0087,104.3352c0.1064,0.0586,0.2124,0.1172,0.3147,0.1738 c0.0653-0.0652,0.1195-0.1195,0.174-0.1738c-0.1086-0.0542-0.2128-0.1271-0.3278-0.1527 C11.1293,104.1736,11.0632,104.281,11.0087,104.3352z M27.4581,103.2055c-0.115,0.0255-0.2195,0.0985-0.3281,0.1527 c0.0545,0.0543,0.1086,0.1085,0.174,0.1739c0.1023-0.0566,0.2087-0.1153,0.3147-0.1739 C27.5641,103.3039,27.498,103.1965,27.4581,103.2055z M2.6125,98.5567c-0.0258-0.115-0.0982-0.2194-0.1527-0.328 c-0.0545,0.0543-0.1616,0.1205-0.1527,0.1607c0.0254,0.115,0.0982,0.2193,0.1527,0.3279 C2.514,98.6629,2.6215,98.5969,2.6125,98.5567z M16.6765,96.7094c0.0183,0.0098,0.0982-0.0941,0.1545-0.1507 c-0.0765-0.0943-0.1534-0.1891-0.2307-0.2841c-0.0724,0.0726-0.1452,0.1452-0.2176,0.2179 C16.479,96.5676,16.5705,96.6518,16.6765,96.7094z M16.2218,95.8696c-0.1094,0.1349-0.2184,0.2701-0.3278,0.405 c0.1628,0,0.3255,0,0.4886,0C16.329,96.1396,16.2752,96.0045,16.2218,95.8696z M18.6647,92.9465 c-0.115,0.0256-0.2195,0.0985-0.3281,0.1528c0.0545,0.0542,0.1086,0.1084,0.174,0.1738c0.1023-0.0566,0.2087-0.1152,0.3147-0.1738 C18.7711,93.045,18.705,92.9376,18.6647,92.9465z M17.3596,93.0993c0.0541,0.0542,0.1202,0.1616,0.1605,0.1527 c0.115-0.0256,0.2195-0.0984,0.3281-0.1527c-0.0545-0.0543-0.1206-0.1617-0.1609-0.1528 C17.5724,92.9722,17.4683,93.045,17.3596,93.0993z M12.4743,93.0993c0.0545,0.0542,0.1206,0.1616,0.1609,0.1527 c0.115-0.0256,0.2191-0.0984,0.3278-0.1527c-0.0541-0.0543-0.1202-0.1617-0.1605-0.1529 C12.6874,92.9721,12.5829,93.045,12.4743,93.0993z M16.0934,91.3444c0.0963-0.0751,0.1926-0.1504,0.2893-0.2256 c0-0.0726,0-0.1452,0-0.2178c-0.1265,0.0451-0.2684,0.0702-0.3703,0.1476C15.9818,91.0718,16.0632,91.2416,16.0934,91.3444z M416.2751,90.573c0.0258,0.115,0.0985,0.2193,0.153,0.3279c0.0541-0.0543,0.1083-0.1086,0.1736-0.174 c-0.0564-0.1023-0.115-0.2085-0.1736-0.3146C416.3736,90.4666,416.2661,90.5327,416.2751,90.573z M19.2601,89.1413 c0.0097-0.0181-0.0941-0.098-0.1508-0.1545c-0.0944,0.0765-0.1893,0.1537-0.2841,0.2309c0.0724,0.0726,0.1452,0.1452,0.218,0.2178 C19.1182,89.3389,19.2022,89.2473,19.2601,89.1413z M15.9855,87.6419c0.0258,0.115,0.0985,0.2193,0.1527,0.3279 c0.0545-0.0543,0.1086-0.1086,0.174-0.1738c-0.0567-0.1025-0.1153-0.2087-0.174-0.3148 C16.0841,87.5355,15.9766,87.6017,15.9855,87.6419z M28.9927,85.3666c-0.0258-0.115-0.0986-0.2195-0.1527-0.3279 c-0.0545,0.0543-0.162,0.1204-0.1531,0.1605c0.0258,0.115,0.0986,0.2194,0.1531,0.3279 C28.8941,85.4729,29.0017,85.4068,28.9927,85.3666z M55.8824,80.8158c-0.0653-0.0651-0.1198-0.1195-0.174-0.1738 c-0.0545,0.1086-0.1273,0.213-0.1527,0.3279c-0.009,0.0401,0.0982,0.1063,0.1527,0.1605 C55.7671,81.0244,55.8257,80.9183,55.8824,80.8158z M60.7465,79.9928c-0.0258-0.115-0.0985-0.2193-0.1527-0.3279 c-0.0545,0.0543-0.162,0.1204-0.153,0.1607c0.0258,0.1149,0.0985,0.2193,0.1527,0.3279 C60.648,80.0992,60.7555,80.0332,60.7465,79.9928z M15.8941,79.6649c0.0538,0.1351,0.1071,0.2701,0.1609,0.4052 c0.1094-0.1351,0.2184-0.2701,0.3278-0.4052C16.2196,79.6649,16.0568,79.6649,15.8941,79.6649z M56.6402,79.6199 c0.0967-0.0752,0.193-0.1504,0.2897-0.2256c0-0.0727,0-0.1453,0-0.2179c-0.1265,0.0451-0.2684,0.0701-0.3703,0.1476 C56.529,79.3472,56.6104,79.5172,56.6402,79.6199z M16.8172,79.3709c0.0101-0.0181-0.0941-0.098-0.1504-0.1545 c-0.0944,0.0765-0.1893,0.1536-0.2841,0.2307c0.0724,0.0726,0.1452,0.1452,0.2176,0.2178 C16.6757,79.5685,16.7597,79.4769,16.8172,79.3709z M15.4506,79.3756c0.0754,0.0965,0.1504,0.193,0.2255,0.2895 c0.0728-0.0002,0.1456-0.0002,0.218-0.0002c-0.0452-0.1265-0.0702-0.2682-0.1478-0.3702 C15.7235,79.2644,15.5532,79.3455,15.4506,79.3756z M13.2071,76.2453c0.059-0.1061,0.1176-0.2123,0.174-0.3147 c-0.0653-0.0652-0.1195-0.1195-0.174-0.1738c-0.0541,0.1085-0.1269,0.213-0.1527,0.3279 C13.0454,76.1249,13.1529,76.191,13.2071,76.2453z M20.3359,75.4675c0.075,0.0964,0.1504,0.1929,0.2255,0.2894 c0.0728,0,0.1452,0,0.218,0c-0.0452-0.1265-0.0702-0.2684-0.1478-0.3703C20.6084,75.3561,20.4386,75.4373,20.3359,75.4675z M39.5421,71.8035c0.0967-0.0751,0.193-0.1503,0.2893-0.2256c0-0.0726,0-0.1452,0-0.2178c-0.1262,0.0452-0.268,0.0702-0.3703,0.1476 C39.4308,71.5308,39.5122,71.7008,39.5421,71.8035z M21.7563,71.1158c-0.0541-0.0543-0.1086-0.1085-0.174-0.1738 c-0.1023,0.0566-0.2083,0.1152-0.3147,0.1738c0.0545,0.0543,0.1206,0.1616,0.1609,0.1528 C21.5432,71.2429,21.6477,71.1701,21.7563,71.1158z M20.1993,71.1995c-0.0258-0.115-0.0986-0.2194-0.1527-0.3279 c-0.0545,0.0543-0.1086,0.1086-0.174,0.1739c0.0567,0.1023,0.1153,0.2085,0.174,0.3147 C20.1007,71.3058,20.2083,71.2398,20.1993,71.1995z" fill="#0b638b"/></g></svg>